<svg width="18" height="19" viewBox="0 0 18 19" fill="none" xmlns="http://www.w3.org/2000/svg">
<path d="M17.9989 2.79908C17.954 2.9663 17.936 3.15158 17.8506 3.30072C17.7067 3.55831 17.5583 3.83398 17.3559 4.03735C14.7389 6.6856 12.1084 9.3203 9.48233 11.955C9.3879 12.0499 9.2575 12.1267 9.1271 12.1629C7.922 12.5063 6.71691 12.8408 5.51181 13.1752C5.04866 13.3017 4.76537 13.0215 4.89128 12.5606C5.22403 11.3494 5.55678 10.1383 5.89852 8.92713C5.93449 8.79607 6.01094 8.66502 6.10537 8.57011C8.7314 5.92186 11.3574 3.27812 13.9925 0.638904C14.8468 -0.215226 16.0699 -0.210707 16.9243 0.638904C17.0726 0.788038 17.221 0.937172 17.3739 1.08631C17.6932 1.40717 17.9045 1.78678 17.972 2.2387C17.9765 2.2613 17.99 2.27938 17.9989 2.30197C17.9989 2.46918 17.9989 2.63187 17.9989 2.79908ZM9.10911 10.9969C11.2765 8.81867 13.4529 6.63137 15.6112 4.46215C14.9322 3.77975 14.2398 3.08379 13.5653 2.40591C11.3979 4.58417 9.22603 6.76695 7.06315 8.94069C7.74214 9.62309 8.43462 10.3236 9.10911 10.9969ZM14.1903 1.6738C14.9188 2.40591 15.6157 3.10639 16.2857 3.77975C16.4656 3.61254 16.6814 3.45437 16.8523 3.25552C17.1851 2.86687 17.1896 2.26582 16.8613 1.87717C16.6365 1.61505 16.3937 1.36198 16.1283 1.14506C15.7821 0.860345 15.3639 0.810634 14.9817 1.03207C14.6849 1.2038 14.4421 1.4614 14.1903 1.6738ZM8.23227 11.485C7.67469 10.9246 7.1261 10.3778 6.57302 9.82645C6.36617 10.5721 6.15933 11.3359 5.94349 12.1267C6.73489 11.9053 7.49033 11.6929 8.23227 11.485Z" fill="#5ED5AA"/>
<path d="M8.53348 18.0015C6.46503 18.0015 4.39658 18.0015 2.32813 18.0015C1.28041 18.0015 0.448539 17.4366 0.129278 16.4831C0.0483387 16.2435 0.00337247 15.9769 0.00337247 15.7238C-0.00112416 11.8283 -0.00112416 7.93723 0.00337247 4.0462C0.00337247 2.74918 0.965651 1.77755 2.27417 1.764C3.5692 1.75044 4.86423 1.75948 6.15926 1.764C6.46952 1.764 6.68086 1.95832 6.67187 2.22044C6.66288 2.47803 6.45603 2.6588 6.15476 2.6588C4.87772 2.6588 3.60067 2.6588 2.32363 2.6588C1.62666 2.6588 1.11854 3.03389 0.947664 3.68918C0.907195 3.83379 0.902698 3.99197 0.902698 4.1411C0.898201 7.96887 0.898201 11.7966 0.898201 15.6244C0.898201 16.3656 1.25793 16.8762 1.90994 17.0525C2.04934 17.0886 2.19773 17.1022 2.34612 17.1022C6.46952 17.1067 10.5929 17.1067 14.7208 17.1022C15.5977 17.1022 16.1687 16.5237 16.1687 15.638C16.1687 14.359 16.1687 13.0846 16.1687 11.8057C16.1687 11.539 16.3126 11.3492 16.5285 11.3131C16.8073 11.2634 17.0501 11.4622 17.0591 11.7605C17.0681 12.1537 17.0636 12.5513 17.0636 12.9445C17.0636 13.9207 17.0771 14.9013 17.0546 15.8775C17.0276 17.0028 16.0788 17.9699 14.9547 17.9925C13.6416 18.0196 12.3286 18.0015 11.0201 18.006C10.1837 18.0015 9.36086 18.0015 8.53348 18.0015Z" fill="#5ED5AA"/>
</svg>
