<svg width="69" height="67" viewBox="0 0 69 67" fill="none" xmlns="http://www.w3.org/2000/svg">
<g filter="url(#filter0_d_398_76)">
<path d="M50.304 39.6252C50.5035 39.279 50.7693 38.9755 51.0862 38.7322C51.4031 38.4888 51.7649 38.3103 52.1508 38.2069C52.5368 38.1034 52.9393 38.077 53.3355 38.1293C53.7316 38.1815 54.1136 38.3113 54.4595 38.5113L59.7289 41.5529C60.4273 41.9565 60.9368 42.6209 61.1454 43.4C61.354 44.1791 61.2447 45.0092 60.8415 45.7077C60.4383 46.4063 59.7742 46.9161 58.9952 47.1251C58.2161 47.3341 57.386 47.2252 56.6873 46.8224L51.4178 43.7807C50.7194 43.377 50.2098 42.7126 50.001 41.9334C49.7921 41.1543 49.9011 40.324 50.304 39.6252ZM59.729 19.4474L54.4595 22.489C54.1135 22.689 53.7315 22.8188 53.3353 22.8711C52.9391 22.9234 52.5365 22.8971 52.1505 22.7937C51.7644 22.6904 51.4025 22.5119 51.0855 22.2687C50.7684 22.0254 50.5024 21.722 50.3026 21.3759C50.1028 21.0298 49.9732 20.6477 49.9211 20.2515C49.8691 19.8553 49.8956 19.4527 49.9991 19.0667C50.1027 18.6807 50.2813 18.3189 50.5247 18.002C50.7682 17.6851 51.0716 17.4192 51.4179 17.2196L56.6873 14.1779C57.3861 13.7751 58.2162 13.6662 58.9952 13.8752C59.7742 14.0842 60.4383 14.5941 60.8415 15.2926C61.2447 15.9911 61.354 16.8212 61.1454 17.6003C60.9368 18.3794 60.4273 19.0438 59.729 19.4474ZM52.7501 30.5002C52.7501 29.6935 53.0705 28.9198 53.641 28.3494C54.2114 27.779 54.985 27.4585 55.7917 27.4585L61.8751 27.4585C62.6818 27.4585 63.4554 27.779 64.0259 28.3494C64.5963 28.9198 64.9167 29.6935 64.9167 30.5002C64.9167 31.3069 64.5963 32.0805 64.0259 32.6509C63.4554 33.2214 62.6818 33.5418 61.8751 33.5418H55.7917C54.985 33.5418 54.2114 33.2214 53.641 32.6509C53.0705 32.0805 52.7501 31.3069 52.7501 30.5002ZM18.6962 21.3752C18.2926 22.0737 17.6282 22.5833 16.849 22.7922C16.0698 23.0011 15.2395 22.892 14.5406 22.489L9.27119 19.4474C8.92498 19.2478 8.62149 18.9819 8.37806 18.665C8.13462 18.348 7.95603 17.9863 7.85246 17.6003C7.74889 17.2143 7.72239 16.8117 7.77447 16.4155C7.82654 16.0192 7.95617 15.6372 8.15596 15.2911C8.35574 14.9449 8.62176 14.6416 8.93882 14.3983C9.25588 14.155 9.61776 13.9766 10.0038 13.8733C10.3898 13.7699 10.7924 13.7436 11.1886 13.7959C11.5848 13.8482 11.9669 13.978 12.3129 14.1779L17.5823 17.2196C18.2807 17.6233 18.7903 18.2877 18.9992 19.0669C19.2081 19.8461 19.0991 20.6763 18.6962 21.3752ZM25.3751 14.6963C24.6762 15.0993 23.846 15.2083 23.0668 14.9994C22.2876 14.7906 21.6231 14.2809 21.2195 13.5824L18.1779 8.31297C17.9779 7.96696 17.8481 7.58494 17.7958 7.18875C17.7435 6.79255 17.7698 6.38993 17.8732 6.0039C17.9766 5.61787 18.155 5.25599 18.3982 4.93893C18.6415 4.62187 18.9449 4.35585 19.291 4.15607C19.6371 3.95628 20.0192 3.82665 20.4154 3.77457C20.8116 3.7225 21.2142 3.749 21.6002 3.85257C21.9862 3.95613 22.348 4.13474 22.6649 4.37817C22.9818 4.6216 23.2477 4.92509 23.4473 5.2713L26.489 10.5407C26.8918 11.2396 27.0008 12.0698 26.792 12.849C26.5831 13.6282 26.0735 14.2926 25.3751 14.6963ZM9.27119 41.5529L14.5406 38.5113C14.8866 38.3113 15.2687 38.1815 15.6649 38.1292C16.0611 38.0769 16.4637 38.1032 16.8497 38.2066C17.2357 38.31 17.5976 38.4884 17.9147 38.7316C18.2317 38.9749 18.4978 39.2783 18.6975 39.6244C18.8973 39.9705 19.027 40.3526 19.079 40.7488C19.1311 41.145 19.1046 41.5476 19.001 41.9336C18.8975 42.3196 18.7189 42.6814 18.4754 42.9983C18.232 43.3152 17.9285 43.5811 17.5823 43.7807L12.3129 46.8224C11.6141 47.2252 10.784 47.3341 10.005 47.1251C9.22598 46.9161 8.56187 46.4063 8.15865 45.7077C7.75544 45.0092 7.64613 44.1791 7.85475 43.4C8.06338 42.6209 8.57286 41.9565 9.27119 41.5529ZM21.2195 47.4179C21.4191 47.0717 21.685 46.7682 22.0019 46.5248C22.3189 46.2813 22.6807 46.1027 23.0666 45.9992C23.4526 45.8956 23.8552 45.8691 24.2514 45.9212C24.6477 45.9733 25.0298 46.1029 25.3759 46.3027C25.722 46.5025 26.0253 46.7685 26.2686 47.0855C26.5119 47.4026 26.6903 47.7645 26.7937 48.1505C26.897 48.5365 26.9233 48.9392 26.871 49.3354C26.8188 49.7316 26.6889 50.1136 26.489 50.4596L23.4473 55.729C23.2477 56.0752 22.9818 56.3787 22.6649 56.6222C22.348 56.8656 21.9862 57.0442 21.6002 57.1478C21.2142 57.2513 20.8116 57.2778 20.4154 57.2257C20.0192 57.1737 19.6371 57.044 19.291 56.8443C18.9449 56.6445 18.6415 56.3785 18.3982 56.0614C18.155 55.7443 17.9766 55.3825 17.8732 54.9964C17.7698 54.6104 17.7435 54.2078 17.7958 53.8116C17.8481 53.4154 17.9779 53.0334 18.1779 52.6874L21.2195 47.4179ZM7.12508 27.4585H13.2084C14.0151 27.4585 14.7888 27.779 15.3592 28.3494C15.9296 28.9198 16.2501 29.6935 16.2501 30.5002C16.2501 31.3069 15.9296 32.0805 15.3592 32.6509C14.7888 33.2214 14.0151 33.5418 13.2084 33.5418H7.12508C6.31839 33.5418 5.54472 33.2214 4.9743 32.6509C4.40388 32.0805 4.08342 31.3069 4.08342 30.5002C4.08342 29.6935 4.40388 28.9198 4.9743 28.3494C5.54472 27.779 6.31839 27.4585 7.12508 27.4585ZM34.5001 48.7502C35.3068 48.7502 36.0804 49.0706 36.6509 49.641C37.2213 50.2115 37.5417 50.9851 37.5417 51.7918V57.8752C37.5417 58.6819 37.2213 59.4555 36.6509 60.0259C36.0804 60.5964 35.3068 60.9168 34.5001 60.9168C33.6934 60.9168 32.9197 60.5964 32.3493 60.0259C31.7789 59.4555 31.4584 58.6819 31.4584 57.8752V51.7918C31.4584 50.9851 31.7789 50.2115 32.3493 49.641C32.9197 49.0706 33.6934 48.7502 34.5001 48.7502ZM43.6251 46.3041C43.971 46.1041 44.353 45.9743 44.7491 45.922C45.1453 45.8698 45.5478 45.8961 45.9338 45.9996C46.3197 46.1031 46.6815 46.2816 46.9984 46.5249C47.3153 46.7683 47.5811 47.0718 47.7806 47.4179L50.8223 52.6874C51.2252 53.3861 51.334 54.2163 51.125 54.9953C50.916 55.7743 50.4062 56.4384 49.7076 56.8416C49.0091 57.2448 48.179 57.3541 47.3999 57.1455C46.6208 56.9369 45.9564 56.4274 45.5529 55.729L42.5112 50.4596C42.1083 49.7607 41.9993 48.9305 42.2082 48.1513C42.417 47.3721 42.9267 46.7077 43.6251 46.3041ZM34.5001 0.0834961C35.3068 0.0834961 36.0804 0.403956 36.6509 0.974379C37.2213 1.5448 37.5417 2.31846 37.5417 3.12516V9.2085C37.5417 10.0152 37.2213 10.7889 36.6509 11.3593C36.0804 11.9297 35.3068 12.2502 34.5001 12.2502C33.6934 12.2502 32.9197 11.9297 32.3493 11.3593C31.7789 10.7889 31.4584 10.0152 31.4584 9.2085V3.12516C31.4584 2.31846 31.7789 1.5448 32.3493 0.974379C32.9197 0.403956 33.6934 0.0834961 34.5001 0.0834961Z" fill="#4285F4"/>
</g>
<defs>
<filter id="filter0_d_398_76" x="0.0834961" y="0.0834961" width="68.8333" height="68.8335" filterUnits="userSpaceOnUse" color-interpolation-filters="sRGB">
<feFlood flood-opacity="0" result="BackgroundImageFix"/>
<feColorMatrix in="SourceAlpha" type="matrix" values="0 0 0 0 0 0 0 0 0 0 0 0 0 0 0 0 0 0 127 0" result="hardAlpha"/>
<feOffset dy="4"/>
<feGaussianBlur stdDeviation="2"/>
<feComposite in2="hardAlpha" operator="out"/>
<feColorMatrix type="matrix" values="0 0 0 0 0.258824 0 0 0 0 0.521569 0 0 0 0 0.956863 0 0 0 0.3 0"/>
<feBlend mode="normal" in2="BackgroundImageFix" result="effect1_dropShadow_398_76"/>
<feBlend mode="normal" in="SourceGraphic" in2="effect1_dropShadow_398_76" result="shape"/>
</filter>
</defs>
</svg>
