<svg width="18" height="18" viewBox="0 0 18 18" fill="none" xmlns="http://www.w3.org/2000/svg">
<path d="M9.94558 9.00554C10.0764 9.1036 10.1636 9.15263 10.229 9.21801C11.0028 9.98617 11.7712 10.7543 12.5341 11.5279C12.9483 11.9474 12.8012 12.5957 12.2562 12.7537C11.9619 12.8354 11.7112 12.7483 11.4987 12.5304C10.7249 11.7513 9.94013 10.9722 9.16629 10.1932C9.11179 10.1387 9.07909 10.0733 9.03005 10.0025C8.22896 10.7925 7.46601 11.5552 6.70852 12.3124C6.62133 12.3996 6.53958 12.4868 6.44694 12.5685C6.14176 12.8463 5.71124 12.8409 5.43332 12.5685C5.14449 12.2852 5.13904 11.8494 5.43877 11.5443C6.22351 10.7543 7.0137 9.96438 7.80389 9.17987C7.85838 9.1254 7.91833 9.08181 7.98917 9.02733C7.91833 8.95106 7.86928 8.89658 7.82024 8.8421C7.0355 8.0576 6.25075 7.27309 5.47146 6.48859C5.25893 6.27612 5.16629 6.02552 5.26438 5.72588C5.35157 5.44803 5.55321 5.2846 5.83659 5.23012C6.10906 5.18108 6.3216 5.29549 6.51233 5.48072C7.28618 6.25433 8.06002 7.02794 8.83386 7.80699C8.88836 7.86147 8.92105 7.92685 8.97555 8.00312C9.06819 7.91595 9.11724 7.86692 9.17174 7.81789C9.96193 7.02794 10.7467 6.23799 11.5369 5.45348C11.951 5.04489 12.605 5.20832 12.7521 5.75312C12.8339 6.05276 12.7303 6.29791 12.5123 6.51038C11.7385 7.28399 10.9647 8.0576 10.1908 8.83121C10.1363 8.88569 10.0655 8.92382 9.94558 9.00554Z" fill="#5ED5A8"/>
<circle cx="9" cy="9" r="8.5" stroke="#5ED5A8"/>
</svg>
