<svg width="16" height="14" viewBox="0 0 16 14" fill="none" xmlns="http://www.w3.org/2000/svg">
<path d="M1.52889 14.0001C1.43137 13.9719 1.33037 13.9437 1.23633 13.9119C0.484045 13.6649 0.00341797 12.9803 0.00341797 12.1475C0.00341797 9.47629 0.00341797 6.80505 0.00341797 4.13381C0.00341797 3.54098 0.00341797 2.95169 0.00341797 2.35886C0.00690077 1.27555 0.773118 0.502757 1.84582 0.499229C2.55631 0.4957 3.26681 0.4957 3.98078 0.499229C4.22458 0.499229 4.39872 0.647435 4.44051 0.869744C4.47882 1.07088 4.35692 1.29672 4.16537 1.36376C4.07482 1.39552 3.97381 1.39905 3.8763 1.39905C3.17625 1.40258 2.47621 1.39199 1.77617 1.40258C1.14926 1.41317 0.731324 2.02716 0.950741 2.60587C1.08309 2.97286 1.35823 3.16341 1.73785 3.1987C1.79358 3.20576 1.85279 3.20223 1.91199 3.20223C5.64904 3.20223 9.38261 3.20223 13.1197 3.20223C13.1823 3.20223 13.245 3.20223 13.3182 3.20223C13.3182 2.59882 13.3182 2.01305 13.3182 1.40258C13.0221 1.40258 12.7296 1.40258 12.437 1.40258C12.2699 1.40258 12.0992 1.40964 11.9355 1.38847C11.6952 1.36024 11.5454 1.16263 11.5594 0.922675C11.5698 0.696837 11.7439 0.509815 11.9738 0.506286C12.5798 0.499228 13.1893 0.499228 13.7953 0.506286C14.0496 0.509815 14.2133 0.703894 14.2202 0.986192C14.2272 1.26143 14.2237 1.53667 14.2237 1.81191C14.2237 2.26712 14.2237 2.72232 14.2237 3.20223C14.3003 3.20223 14.363 3.20223 14.4257 3.20223C14.7949 3.20223 15.1675 3.1987 15.5367 3.20223C15.8153 3.20576 15.986 3.37866 16.0034 3.66096C16.0069 3.70331 16.0034 3.74212 16.0034 3.78447C16.0034 6.9956 16.0034 10.2032 16.0069 13.4143C16.0069 13.6896 15.9233 13.8907 15.6621 13.9966C10.9464 14.0001 6.23764 14.0001 1.52889 14.0001ZM15.0944 10.4008C15.0178 10.4008 14.9516 10.4008 14.882 10.4008C13.9625 10.4008 13.043 10.4008 12.1236 10.4008C11.7091 10.4008 11.5559 10.2456 11.5559 9.83269C11.5559 9.01403 11.5559 8.19184 11.5559 7.37317C11.5559 6.94973 11.7091 6.79799 12.134 6.79799C13.0604 6.79799 13.9834 6.79799 14.9098 6.79799C14.9725 6.79799 15.0317 6.79799 15.0909 6.79799C15.0909 5.88405 15.0909 4.99835 15.0909 4.09852C15.0039 4.09852 14.9272 4.09852 14.8541 4.09852C10.5389 4.09852 6.22371 4.09852 1.90851 4.09852C1.57765 4.09852 1.26419 4.05265 0.968155 3.89386C0.950741 3.88327 0.926361 3.88327 0.891533 3.87621C0.891533 3.94679 0.891533 4.00325 0.891533 4.05971C0.891533 6.738 0.891533 9.4163 0.891533 12.0911C0.891533 12.7368 1.23981 13.0932 1.87717 13.0932C6.22022 13.0932 10.5633 13.0932 14.9098 13.0932C14.969 13.0932 15.0317 13.0897 15.0944 13.0862C15.0944 12.1863 15.0944 11.3042 15.0944 10.4008ZM12.451 7.7084C12.451 8.31534 12.451 8.90111 12.451 9.48688C13.3391 9.48688 14.2167 9.48688 15.0909 9.48688C15.0909 8.887 15.0909 8.30123 15.0909 7.7084C14.2063 7.7084 13.3356 7.7084 12.451 7.7084Z" fill="#5ED5A8"/>
</svg>
