<svg xmlns="http://www.w3.org/2000/svg" viewBox="0 0 193.81 188.1"><defs><style>.cls-1{fill:#5cd4a7;}.cls-2{fill:#fdfefe;}</style></defs><g id="Слой_2" data-name="Слой 2"><g id="Слой_1-2" data-name="Слой 1"><path class="cls-1" d="M65.5,43.06c-1.32-3.85-2.66-7.74-4-11.62C61,30,61,30,62.14,29.09L94.27,1.71c.47-.4.92-.8,1.4-1.18a1.69,1.69,0,0,1,2.5,0c2,1.69,4,3.39,6,5.09l27.66,23.56c1,.82,1,.81.56,2l-3.93,11.38c-.06.17-.09.35-.14.51a2.63,2.63,0,0,0,1.1.64L171.59,62.6c1,.45,1.19.73,1.12,2q-.27,4.49-.56,9-.81,12.89-1.62,25.76-.76,12.25-1.55,24.5c-.44,6.91-.89,13.81-1.25,20.73a3,3,0,0,1-1.8,2.82q-33.68,17.81-67.3,35.7a3.3,3.3,0,0,1-3.51,0q-33.63-17.9-67.3-35.7a2.89,2.89,0,0,1-1.74-2.71c-.47-8.31-1-16.62-1.52-24.93S23.5,103.26,23,95.05s-1-16.34-1.52-24.51c-.11-1.86-.23-3.73-.35-5.6s0-1.85,1.51-2.54L64.69,43.61A1.52,1.52,0,0,0,65.5,43.06Zm1.88,63.28c.17-.07.35-.11.52-.19q13.48-6.36,27-12.7a1.61,1.61,0,0,0,1-1.72c0-11.55,0-23.09,0-34.64,0-.28.16-.64-.2-.87A4.08,4.08,0,0,0,95,57.38L74,93.82Q70.56,99.9,67.11,106c-.12.14-.25.3-.08.46S67.26,106.37,67.38,106.34Zm96.8-38.23C157.63,64.84,99,39.25,97.83,39.17q0,6.26,0,12.49a2.22,2.22,0,0,0,.37,1.17q15.16,26.37,30.31,52.73c.17.3.24.72.74.83ZM95.78,39,29.57,68.07l35,38.39a3.9,3.9,0,0,0,.94-1.35q15-26.06,30-52.11A3.24,3.24,0,0,0,96,51.28c0-3.74,0-7.48,0-11.22A1.85,1.85,0,0,0,95.78,39ZM98,175.82l60.77-35.73-27.65-27.31-.83,1.2q-15.81,22.62-31.65,45.25a4,4,0,0,0-.78,2.45c0,4.25,0,8.51,0,12.76A2.72,2.72,0,0,0,98,175.82ZM35,140.05l60.83,35.76a2.94,2.94,0,0,0,.18-1.5c0-4.26-.07-8.51-.06-12.76a3.8,3.8,0,0,0-.76-2.32c-4.17-5.92-8.3-11.86-12.45-17.79L62.65,112.77Zm91.66-97.54c1.28-3.67,2.48-7.15,3.69-10.63.44-1.27.44-1.27-.64-2.19L97.86,2.58c-1.14-1-.91-.87-1.9,0L78.23,17.66q-7.16,6.09-14.3,12.19c-1.06.92-.94.56-.5,1.86,1.1,3.27,2.25,6.53,3.38,9.79.43,1.25.43.94,1.34.58.26-.1.51-.22.77-.34q13.23-5.91,26.45-11.85a3.34,3.34,0,0,1,3,0c6.89,3.13,13.8,6.19,20.7,9.28ZM34.15,138.27a2.69,2.69,0,0,0,1.11-.87L61.59,111a14,14,0,0,0,1.5-1.85c.7-1,.83-.83-.09-1.83q-16.41-18-32.83-36c-.23-.25-.38-.64-1-.69C30.82,93.18,32.48,115.66,34.15,138.27Zm125.41-.09c.63-4.26,5.11-66.67,4.85-67.7-.28.29-.54.55-.79.82Q148.68,87.67,133.73,104c-1.07,1.17-2.13,2.36-3.22,3.51a.76.76,0,0,0-.09,1.19,25.22,25.22,0,0,0,1.65,2.09l26.43,26.54A2.26,2.26,0,0,0,159.56,138.18Zm-61.44-82-.28.06V57q0,17.4,0,34.79A1.6,1.6,0,0,0,99,93.46c9,4.2,17.9,8.44,26.85,12.65.3.14.59.5,1.07.15ZM98,125l28.67-16.53L98,94.89ZM67.32,108.35c1.7,1.32,27.49,16.08,28.48,16.31V94.9Zm61,5.48-.17-.15c-.21.1-.43.18-.62.29q-14.31,8.4-28.63,16.79a1.75,1.75,0,0,0-1,1.75c0,7.71,0,15.42,0,23.13v1.2l.29.08Q113.21,135.37,128.28,113.83Zm-62.37,0c-.19.31-.11.43,0,.53q14.86,21.24,29.74,42.47s.07,0,.11,0,0-.16.18,0v-1.57c0-7.52,0-15.05,0-22.57a2.06,2.06,0,0,0-1.22-2.06c-8.51-4.94-17-9.94-25.5-14.92ZM169.67,63.91a.67.67,0,0,0-.46-.46L98.11,31.74s-.09,0-.13,0a.76.76,0,0,0-.13.1c0,1.47,0,3,0,4.46a.89.89,0,0,0,.64,1c.26.1.51.22.77.33L146.3,58.3c6.07,2.67,12.14,5.32,18.2,8a1.66,1.66,0,0,0,1.92-.13C167.45,65.37,168.56,64.67,169.67,63.91ZM23.9,63.76c1.2.82,2.22,1.42,3.11,2.17a2.2,2.2,0,0,0,2.65.23q27-11.91,54-23.75l11.28-5c.39-.18,1-.2,1-.82a49.91,49.91,0,0,0,0-5Zm74,117.68,67.1-35.6c-1.52-1.42-3-2.76-4.38-4.11a.7.7,0,0,0-1-.13c-.31.21-.64.39-1,.58q-29.05,17.07-58.1,34.16c-.88.52-2.08.79-2.52,1.68S97.88,180.12,97.87,181.44Zm-69-35.66c2.48,1.64,66,35.2,67,35.39a16,16,0,0,1,0-1.83,2,2,0,0,0-1.22-2.2q-29.86-17.49-59.67-35l-.85-.49a.64.64,0,0,0-.88,0Zm142-80.59c-1.29.88-2.29,1.62-3.36,2.25a2.12,2.12,0,0,0-1.11,1.92c-.21,3.46-.47,6.91-.72,10.36q-1.06,14.27-2.15,28.52t-2.07,28.4c-.08,1.11-.56,2.35-.1,3.31s1.53,1.6,2.34,2.38c.65.62,1.32,1.23,2.2,2C167.62,117.85,169.26,91.67,170.92,65.19ZM27.81,144l.31.11a31.81,31.81,0,0,1,3-2.74,3.42,3.42,0,0,0,1.34-3.51c-.49-5.82-.91-11.65-1.34-17.48Q30.17,108,29.27,95.65C28.64,87,28,78.4,27.38,69.77A2.63,2.63,0,0,0,26,67.28c-.78-.41-1.46-1-2.21-1.48-.24-.15-.44-.54-.88-.23Q25.35,104.78,27.81,144Zm36.4-33.31c.34.22.64.42,1,.6q15.35,9,30.68,18a1.8,1.8,0,0,0,2.13,0q15.27-9,30.57-18c.34-.2.76-.33,1-.7-1-1.71-.8-1.43-2.14-.67l-.36.21c-9.51,5.48-19,10.94-28.51,16.47a2.84,2.84,0,0,1-3.31,0c-3.92-2.35-7.91-4.6-11.88-6.88L66.1,109.82c-1-.56-1-.55-1.62.38A5,5,0,0,0,64.21,110.72Z"/><path class="cls-1" d="M41,157.13a3.17,3.17,0,0,1,1.47.61l33.17,18.09,6,3.28a5.44,5.44,0,0,1,.83.51.86.86,0,0,1,0,1.43,2.65,2.65,0,0,1-1.13.55L57.89,188c-1.14.31-1.33.19-2-1.09L41,160.21a16.36,16.36,0,0,1-1-1.85C39.67,157.59,40.08,157.09,41,157.13Zm38.59,23.14.06-.27-36.4-19.86a.69.69,0,0,0,.11.78Q50.18,173.15,57,185.38a1.14,1.14,0,0,0,1.57.62c4.53-1.26,9.08-2.49,13.63-3.72Z"/><path class="cls-1" d="M152.79,157.11c1,0,1.3.52,1,1.24a7.84,7.84,0,0,1-.51,1L138,186.73c-.87,1.55-.87,1.55-2.65,1.07l-22.68-6.14a3.25,3.25,0,0,1-1.29-.52.9.9,0,0,1,0-1.6,7.2,7.2,0,0,1,.85-.49q19.55-10.65,39.07-21.32A3.34,3.34,0,0,1,152.79,157.11Zm-2.1,3.3-.2-.24-36.57,20c.49.18.7.27.92.33,4.55,1.24,9.11,2.46,13.66,3.69,2.29.63,4.59,1.25,6.88,1.89.62.17,1.1.17,1.35-.54A2.15,2.15,0,0,1,137,185q6.56-11.75,13.1-23.49C150.31,161.14,150.5,160.77,150.69,160.41Z"/><path class="cls-1" d="M173.94,82.81,175,65.9c0-.51,0-1.09.6-1.3a1.43,1.43,0,0,1,1.61.53q8,8.39,15.94,16.75c.93,1,.89,1.45-.1,2.33l-18.22,16-.32.28a.94.94,0,0,1-1.15.22,1.06,1.06,0,0,1-.45-1.1c.09-1.35.17-2.7.25-4q.4-6.36.8-12.72Zm17.81.22c-3.79-4.42-14.07-15-15.12-15.61-.62,10.08-1.23,20.12-1.87,30.51Z"/><path class="cls-1" d="M19.84,82.84q.5,8.11,1,16.22a5.92,5.92,0,0,1,0,.84.86.86,0,0,1-1.39.72,4.7,4.7,0,0,1-.65-.53L1,84.38C-.29,83.29-.31,82.89.86,81.66q7.72-8.13,15.46-16.24c.12-.14.26-.27.38-.41a1.3,1.3,0,0,1,1.52-.4c.53.19.54.7.57,1.17.14,2.19.3,4.38.43,6.57C19.43,75.85,19.63,79.35,19.84,82.84Zm-1.1,14.84.27-.13c-.62-10-1.24-20.09-1.87-30.47L2,83Z"/><path class="cls-1" d="M126.62,42.51l-7.52-3.35c-6.9-3.09-13.81-6.15-20.7-9.28a3.34,3.34,0,0,0-3,0q-13.22,6-26.45,11.85c-.26.12-.51.24-.77.34-.91.36-.91.67-1.34-.58-1.13-3.26-2.28-6.52-3.38-9.79-.44-1.3-.56-.94.5-1.86q7.14-6.12,14.3-12.19L96,2.56c1-.85.76-.95,1.9,0l31.81,27.11c1.08.92,1.08.92.64,2.19C129.1,35.36,127.9,38.84,126.62,42.51Z"/><path class="cls-1" d="M98.12,56.18l28.77,50.08c-.48.35-.77,0-1.07-.15-8.95-4.21-17.9-8.45-26.85-12.65a1.6,1.6,0,0,1-1.12-1.66q0-17.4,0-34.79v-.77Z"/><path class="cls-1" d="M67.11,106Q70.58,99.91,74,93.82L95,57.38a4.08,4.08,0,0,1,.76-1.16c.36.23.2.59.2.87,0,11.55,0,23.09,0,34.64a1.61,1.61,0,0,1-1,1.72q-13.51,6.31-27,12.7c-.17.08-.35.12-.52.19Z"/><path class="cls-1" d="M98,125V94.89l28.67,13.54Z"/><path class="cls-1" d="M67.32,108.35,95.8,94.9v29.76C94.81,124.43,69,109.67,67.32,108.35Z"/><path class="cls-1" d="M128.28,113.83q-15.07,21.54-30.13,43.09l-.29-.08v-1.2c0-7.71,0-15.42,0-23.13a1.75,1.75,0,0,1,1-1.75q14.34-8.37,28.63-16.79c.19-.11.41-.19.62-.29Z"/><path class="cls-1" d="M65.91,113.79l3.28,1.9c8.5,5,17,10,25.5,14.92a2.06,2.06,0,0,1,1.22,2.06c0,7.52,0,15.05,0,22.57v1.57c-.21-.15,0,0-.18,0s-.1,0-.11,0q-14.88-21.22-29.74-42.47C65.8,114.22,65.72,114.1,65.91,113.79Z"/><path class="cls-1" d="M169.67,63.91c-1.11.76-2.22,1.46-3.25,2.26a1.66,1.66,0,0,1-1.92.13c-6.06-2.68-12.13-5.33-18.2-8L99.25,37.61c-.26-.11-.51-.23-.77-.33a.89.89,0,0,1-.64-1c0-1.49,0-3,0-4.46a.76.76,0,0,1,.13-.1s.09-.05.13,0l71.1,31.71A.67.67,0,0,1,169.67,63.91Z"/><path class="cls-1" d="M23.9,63.76l72-32.18a49.91,49.91,0,0,1,0,5c0,.62-.61.64-1,.82l-11.28,5q-27,11.87-54,23.75A2.2,2.2,0,0,1,27,65.93C26.12,65.18,25.1,64.58,23.9,63.76Z"/><path class="cls-1" d="M97.87,181.44c0-1.32-.31-2.5.15-3.42s1.64-1.16,2.52-1.68q29-17.1,58.1-34.16c.32-.19.65-.37,1-.58a.7.7,0,0,1,1,.13c1.42,1.35,2.86,2.69,4.38,4.11Z"/><path class="cls-1" d="M28.9,145.78l4.39-4.14a.64.64,0,0,1,.88,0l.85.49q29.82,17.53,59.67,35a2,2,0,0,1,1.22,2.2,16,16,0,0,0,0,1.83C94.9,181,31.38,147.42,28.9,145.78Z"/><path class="cls-1" d="M170.92,65.19c-1.66,26.48-3.3,52.66-5,79.19-.88-.82-1.55-1.43-2.2-2-.81-.78-1.89-1.43-2.34-2.38s0-2.2.1-3.31q1-14.2,2.07-28.4t2.15-28.52c.25-3.45.51-6.9.72-10.36a2.12,2.12,0,0,1,1.11-1.92C168.63,66.81,169.63,66.07,170.92,65.19Z"/><path class="cls-1" d="M27.81,144q-2.46-39.24-4.92-78.46c.44-.31.64.08.88.23.75.48,1.43,1.07,2.21,1.48a2.63,2.63,0,0,1,1.4,2.49C28,78.4,28.64,87,29.27,95.65q.91,12.38,1.81,24.76c.43,5.83.85,11.66,1.34,17.48a3.42,3.42,0,0,1-1.34,3.51,31.81,31.81,0,0,0-3,2.74Z"/><path class="cls-2" d="M67.38,106.34c-.12,0-.3.14-.35.1s0-.32.08-.46Z"/><path class="cls-1" d="M79.58,180.27l-7.41,2c-4.55,1.23-9.1,2.46-13.63,3.72a1.14,1.14,0,0,1-1.57-.62q-6.76-12.25-13.62-24.46a.69.69,0,0,1-.11-.78L79.64,180Z"/><path class="cls-1" d="M150.69,160.41c-.19.36-.38.73-.59,1.1Q143.56,173.26,137,185a2.15,2.15,0,0,0-.27.49c-.25.71-.73.71-1.35.54-2.29-.64-4.59-1.26-6.88-1.89-4.55-1.23-9.11-2.45-13.66-3.69-.22-.06-.43-.15-.92-.33l36.57-20Z"/><path class="cls-1" d="M191.75,83l-17,14.9c.64-10.39,1.25-20.43,1.87-30.51C177.68,68,188,78.61,191.75,83Z"/><path class="cls-1" d="M18.74,97.68,2,83l15.15-15.9C17.77,77.46,18.39,87.5,19,97.55Z"/></g></g></svg>