<svg width="27" height="24" viewBox="0 0 27 24" fill="none" xmlns="http://www.w3.org/2000/svg">
<path d="M5.08592 23.5875C4.01784 23.5875 2.94976 23.5932 1.88169 23.5819C1.65479 23.5819 1.41683 23.5479 1.20653 23.4631C0.747203 23.2763 0.459432 22.6312 0.713999 22.1219C1.02391 21.4994 1.35595 20.8882 1.688 20.2771C2.10305 19.5131 2.52917 18.7548 2.94976 17.9965C3.35375 17.2722 3.75774 16.5421 4.16726 15.8178C4.7262 14.8105 5.28514 13.8089 5.84408 12.8016C6.06545 12.4055 6.28128 12.0093 6.50264 11.6132C7.02284 10.6738 7.54304 9.73443 8.06325 8.79504C8.40636 8.17821 8.74394 7.56139 9.08705 6.94456C9.47997 6.24285 9.86735 5.54114 10.2603 4.83943C10.5868 4.2509 10.9188 3.66803 11.2453 3.07949C11.5885 2.45701 11.926 1.82887 12.2747 1.2177C12.4462 0.923433 12.6289 0.634826 12.8392 0.368855C13.0716 0.0745898 13.4036 0.0519539 13.7467 0.0915666C14.1009 0.136838 14.3167 0.374514 14.4828 0.657462C14.8978 1.37049 15.3018 2.09484 15.7058 2.81352C16.1209 3.54353 16.5359 4.27353 16.9454 5.0092C17.2719 5.59207 17.5985 6.17494 17.8918 6.77479C18.1795 7.35201 18.2404 7.97449 18.1519 8.61961C18.0799 9.1459 17.853 9.61559 17.604 10.0683C17.2332 10.7474 16.8569 11.4151 16.4861 12.0942C16.0932 12.8072 15.6947 13.5146 15.3018 14.2276C14.931 14.8954 14.5713 15.5631 14.2005 16.2309C13.7855 16.9779 13.3649 17.7192 12.9554 18.4719C12.6067 19.1 12.2747 19.7395 11.9205 20.3619C11.5331 21.041 11.1457 21.7201 10.7196 22.3709C10.4152 22.8349 9.96697 23.1461 9.45783 23.3612C9.07598 23.5253 8.67753 23.5989 8.26247 23.5989C7.20547 23.5819 6.14846 23.5875 5.08592 23.5875Z" fill="#E84142"/>
<path d="M21.2846 23.5992C20.2 23.5992 19.1098 23.5992 18.0251 23.5992C17.7096 23.5992 17.3997 23.5879 17.0843 23.5879C16.5862 23.5822 16.2486 23.3276 16.0716 22.8579C15.9443 22.5127 16.0439 22.1901 16.2099 21.8845C16.7135 20.9848 17.2116 20.0793 17.7207 19.1852C18.1247 18.4722 18.5453 17.7648 18.9548 17.0518C19.3201 16.4123 19.6632 15.7672 20.0339 15.1334C20.2166 14.8278 20.3771 14.4996 20.6538 14.2619C21.0411 13.9281 21.7052 13.9677 22.0207 14.3808C22.2531 14.6864 22.4579 15.0202 22.6571 15.3541C22.9504 15.8464 23.2216 16.3444 23.5038 16.8424C23.8414 17.4423 24.179 18.0365 24.5221 18.6363C24.8929 19.2814 25.2747 19.9152 25.6344 20.5604C25.9333 21.0923 26.2266 21.6299 26.4867 22.1845C26.6638 22.558 26.5309 22.988 26.2764 23.2653C26.0661 23.4974 25.8005 23.5992 25.4961 23.5992C24.0904 23.5992 22.6848 23.5992 21.2791 23.5992C21.2846 23.5879 21.2846 23.5936 21.2846 23.5992Z" fill="#E84142"/>
</svg>
