<svg width="26" height="25" viewBox="0 0 26 25" fill="none" xmlns="http://www.w3.org/2000/svg">
<g filter="url(#filter0_d_34_5728)">
<path d="M8.66079 13.8141C8.96969 13.2587 9.24822 12.7086 9.56725 12.1855C10.6104 10.4814 11.9068 9.02542 13.3552 7.71501C14.9048 6.30753 16.5961 5.12114 18.3888 4.09654C18.5509 4.00486 18.718 3.94015 18.8598 4.08575C18.9408 4.17204 18.9965 4.32842 19.0016 4.45245C19.0066 4.54413 18.9256 4.66277 18.8496 4.73287C16.8139 6.57716 15.1124 8.72883 13.6641 11.1124C12.074 13.7278 10.8839 16.5266 10.1648 19.5519C10.1547 19.5842 10.1446 19.6166 10.1395 19.649C10.104 19.8215 10.018 19.9402 9.85084 19.9887C9.68372 20.0372 9.55712 19.9563 9.45078 19.8269C8.94944 19.2499 8.4481 18.6675 7.94676 18.0905C6.03255 15.8795 4.11834 13.6739 2.20413 11.4629C2.17375 11.4305 2.14336 11.3928 2.11298 11.3604C1.9965 11.231 1.97118 11.0746 2.03195 10.9129C2.09778 10.7457 2.22945 10.6756 2.39656 10.6756C2.69534 10.6756 2.98906 10.6756 3.28784 10.6756C4.12847 10.6756 4.9691 10.681 5.80973 10.6702C6.01229 10.6702 6.15409 10.7403 6.28575 10.9021C7.01497 11.808 7.74926 12.7032 8.48355 13.6038C8.54431 13.6739 8.60508 13.744 8.66079 13.8141Z" fill="#5ED5A8"/>
</g>
<defs>
<filter id="filter0_d_34_5728" x="0" y="0" width="25.0018" height="24.0029" filterUnits="userSpaceOnUse" color-interpolation-filters="sRGB">
<feFlood flood-opacity="0" result="BackgroundImageFix"/>
<feColorMatrix in="SourceAlpha" type="matrix" values="0 0 0 0 0 0 0 0 0 0 0 0 0 0 0 0 0 0 127 0" result="hardAlpha"/>
<feOffset dx="2"/>
<feGaussianBlur stdDeviation="2"/>
<feComposite in2="hardAlpha" operator="out"/>
<feColorMatrix type="matrix" values="0 0 0 0 0.368627 0 0 0 0 0.835294 0 0 0 0 0.658824 0 0 0 0.2 0"/>
<feBlend mode="normal" in2="BackgroundImageFix" result="effect1_dropShadow_34_5728"/>
<feBlend mode="normal" in="SourceGraphic" in2="effect1_dropShadow_34_5728" result="shape"/>
</filter>
</defs>
</svg>
