<svg width="26" height="25" viewBox="0 0 26 25" fill="none" xmlns="http://www.w3.org/2000/svg">
<g filter="url(#filter0_d_34_3154)">
<path d="M8.66091 13.8141C8.96982 13.2587 9.24834 12.7086 9.56737 12.1855C10.6106 10.4814 11.907 9.02542 13.3553 7.71501C14.9049 6.30753 16.5963 5.12114 18.3889 4.09654C18.551 4.00486 18.7181 3.94015 18.8599 4.08575C18.9409 4.17204 18.9966 4.32842 19.0017 4.45245C19.0068 4.54413 18.9257 4.66277 18.8498 4.73287C16.814 6.57716 15.1125 8.72883 13.6642 11.1124C12.0741 13.7278 10.884 16.5266 10.1649 19.5519C10.1548 19.5842 10.1447 19.6166 10.1396 19.649C10.1042 19.8215 10.0181 19.9402 9.85096 19.9887C9.68385 20.0372 9.55725 19.9563 9.4509 19.8269C8.94956 19.2499 8.44822 18.6675 7.94688 18.0905C6.03267 15.8795 4.11846 13.6739 2.20425 11.4629C2.17387 11.4305 2.14348 11.3928 2.1131 11.3604C1.99663 11.231 1.97131 11.0746 2.03207 10.9129C2.09791 10.7457 2.22957 10.6756 2.39669 10.6756C2.69546 10.6756 2.98918 10.6756 3.28796 10.6756C4.12859 10.6756 4.96922 10.681 5.80985 10.6702C6.01241 10.6702 6.15421 10.7403 6.28587 10.9021C7.0151 11.808 7.74938 12.7032 8.48367 13.6038C8.54444 13.6739 8.60521 13.744 8.66091 13.8141Z" fill="#5ED5A8"/>
</g>
<defs>
<filter id="filter0_d_34_3154" x="0.00012207" y="0" width="25.0018" height="24.0029" filterUnits="userSpaceOnUse" color-interpolation-filters="sRGB">
<feFlood flood-opacity="0" result="BackgroundImageFix"/>
<feColorMatrix in="SourceAlpha" type="matrix" values="0 0 0 0 0 0 0 0 0 0 0 0 0 0 0 0 0 0 127 0" result="hardAlpha"/>
<feOffset dx="2"/>
<feGaussianBlur stdDeviation="2"/>
<feComposite in2="hardAlpha" operator="out"/>
<feColorMatrix type="matrix" values="0 0 0 0 0.368627 0 0 0 0 0.835294 0 0 0 0 0.658824 0 0 0 0.2 0"/>
<feBlend mode="normal" in2="BackgroundImageFix" result="effect1_dropShadow_34_3154"/>
<feBlend mode="normal" in="SourceGraphic" in2="effect1_dropShadow_34_3154" result="shape"/>
</filter>
</defs>
</svg>
