<svg width="32" height="32" viewBox="0 0 32 32" fill="none" xmlns="http://www.w3.org/2000/svg">
<path d="M12 19.5C12.8284 19.5 13.5 18.8284 13.5 18C13.5 17.1716 12.8284 16.5 12 16.5C11.1716 16.5 10.5 17.1716 10.5 18C10.5 18.8284 11.1716 19.5 12 19.5Z" fill="#C1C7CD"/>
<path d="M20 19.5C20.8284 19.5 21.5 18.8284 21.5 18C21.5 17.1716 20.8284 16.5 20 16.5C19.1716 16.5 18.5 17.1716 18.5 18C18.5 18.8284 19.1716 19.5 20 19.5Z" fill="#C1C7CD"/>
<path d="M9.30005 9.99999C11.4679 9.32057 13.7283 8.98319 16 8.99999C18.2718 8.98319 20.5322 9.32057 22.7 9.99999" stroke="#C1C7CD" stroke-width="2" stroke-linecap="round" stroke-linejoin="round"/>
<path d="M22.7 22C20.5322 22.6794 18.2718 23.0168 16 23C13.7283 23.0168 11.4679 22.6794 9.30005 22" stroke="#C1C7CD" stroke-width="2" stroke-linecap="round" stroke-linejoin="round"/>
<path d="M19.375 22.7625L20.8875 25.7625C20.9848 25.9671 21.1503 26.1314 21.3556 26.2272C21.5609 26.323 21.7931 26.3443 22.0125 26.2875C25.075 25.5375 27.725 24.2375 29.65 22.5625C29.7951 22.4344 29.9005 22.2675 29.9536 22.0814C30.0068 21.8953 30.0055 21.6979 29.95 21.5125L25.7125 7.36249C25.6712 7.21768 25.5966 7.08457 25.4945 6.97385C25.3925 6.86313 25.2659 6.77789 25.125 6.72499C23.9278 6.23383 22.6896 5.84901 21.4249 5.57499C21.1819 5.52176 20.9278 5.55988 20.7111 5.68208C20.4943 5.80427 20.3302 6.00199 20.25 6.23749L19.2625 9.22499" stroke="#C1C7CD" stroke-width="2" stroke-linecap="round" stroke-linejoin="round"/>
<path d="M12.625 22.7625L11.1125 25.7625C11.0152 25.9671 10.8496 26.1314 10.6443 26.2272C10.439 26.323 10.2068 26.3443 9.98747 26.2875C6.92497 25.5375 4.27497 24.2375 2.34997 22.5625C2.20484 22.4344 2.09945 22.2675 2.04628 22.0814C1.99311 21.8953 1.99439 21.6979 2.04997 21.5125L6.28747 7.36249C6.32871 7.21768 6.40335 7.08457 6.50538 6.97385C6.60742 6.86313 6.73401 6.77789 6.87497 6.72499C8.07217 6.23383 9.31028 5.84901 10.575 5.57499C10.818 5.52176 11.0721 5.55988 11.2889 5.68208C11.5056 5.80427 11.6697 6.00199 11.75 6.23749L12.7375 9.22499" stroke="#C1C7CD" stroke-width="2" stroke-linecap="round" stroke-linejoin="round"/>
<path d="M12 19.5C12.8284 19.5 13.5 18.8284 13.5 18C13.5 17.1716 12.8284 16.5 12 16.5C11.1716 16.5 10.5 17.1716 10.5 18C10.5 18.8284 11.1716 19.5 12 19.5Z" fill="#C1C7CD"/>
<path d="M20 19.5C20.8284 19.5 21.5 18.8284 21.5 18C21.5 17.1716 20.8284 16.5 20 16.5C19.1716 16.5 18.5 17.1716 18.5 18C18.5 18.8284 19.1716 19.5 20 19.5Z" fill="#C1C7CD"/>
<path d="M9.30005 9.99999C11.4679 9.32057 13.7283 8.98319 16 8.99999C18.2718 8.98319 20.5322 9.32057 22.7 9.99999" stroke="#C1C7CD" stroke-width="2" stroke-linecap="round" stroke-linejoin="round"/>
<path d="M22.7 22C20.5322 22.6794 18.2718 23.0168 16 23C13.7283 23.0168 11.4679 22.6794 9.30005 22" stroke="#C1C7CD" stroke-width="2" stroke-linecap="round" stroke-linejoin="round"/>
<path d="M19.375 22.7625L20.8875 25.7625C20.9848 25.9671 21.1503 26.1314 21.3556 26.2272C21.5609 26.323 21.7931 26.3443 22.0125 26.2875C25.075 25.5375 27.725 24.2375 29.65 22.5625C29.7951 22.4344 29.9005 22.2675 29.9536 22.0814C30.0068 21.8953 30.0055 21.6979 29.95 21.5125L25.7125 7.36249C25.6712 7.21768 25.5966 7.08457 25.4945 6.97385C25.3925 6.86313 25.2659 6.77789 25.125 6.72499C23.9278 6.23383 22.6896 5.84901 21.4249 5.57499C21.1819 5.52176 20.9278 5.55988 20.7111 5.68208C20.4943 5.80427 20.3302 6.00199 20.25 6.23749L19.2625 9.22499" stroke="#C1C7CD" stroke-width="2" stroke-linecap="round" stroke-linejoin="round"/>
<path d="M12.625 22.7625L11.1125 25.7625C11.0152 25.9671 10.8496 26.1314 10.6443 26.2272C10.439 26.323 10.2068 26.3443 9.98747 26.2875C6.92497 25.5375 4.27497 24.2375 2.34997 22.5625C2.20484 22.4344 2.09945 22.2675 2.04628 22.0814C1.99311 21.8953 1.99439 21.6979 2.04997 21.5125L6.28747 7.36249C6.32871 7.21768 6.40335 7.08457 6.50538 6.97385C6.60742 6.86313 6.73401 6.77789 6.87497 6.72499C8.07217 6.23383 9.31028 5.84901 10.575 5.57499C10.818 5.52176 11.0721 5.55988 11.2889 5.68208C11.5056 5.80427 11.6697 6.00199 11.75 6.23749L12.7375 9.22499" stroke="#C1C7CD" stroke-width="2" stroke-linecap="round" stroke-linejoin="round"/>
</svg>
