<svg width="15" height="15" viewBox="0 0 15 15" fill="none" xmlns="http://www.w3.org/2000/svg">
<path d="M5.62427 5.33201C5.62427 5.33201 5.65428 4.70684 6.32339 4.16847C6.72029 3.84874 7.19614 3.75621 7.62483 3.74978C8.01529 3.74478 8.36396 3.80944 8.57259 3.90876C8.92983 4.0788 9.62539 4.49392 9.62539 5.37667C9.62539 6.3055 9.01807 6.7274 8.32609 7.19146C7.63412 7.65552 7.44621 8.15923 7.44621 8.67973" stroke="#3E474F" stroke-width="1.00189" stroke-miterlimit="10" stroke-linecap="round"/>
<path d="M7.90985 10.6773C7.90985 10.9929 7.65404 11.2487 7.33847 11.2487C7.02291 11.2487 6.76709 10.9929 6.76709 10.6773C6.76709 10.3618 7.02291 10.106 7.33847 10.106C7.65404 10.106 7.90985 10.3618 7.90985 10.6773Z" fill="#3E474F"/>
<path fill-rule="evenodd" clip-rule="evenodd" d="M3.33323 1.26398C4.56659 0.439867 6.01664 0 7.5 0C9.48912 0 11.3968 0.790176 12.8033 2.1967C14.2098 3.60322 15 5.51088 15 7.5C15 8.98336 14.5601 10.4334 13.736 11.6668C12.9119 12.9001 11.7406 13.8614 10.3701 14.4291C8.99968 14.9967 7.49168 15.1453 6.03682 14.8559C4.58197 14.5665 3.2456 13.8522 2.1967 12.8033C1.14781 11.7544 0.433503 10.418 0.144114 8.96318C-0.145275 7.50832 0.00324967 6.00032 0.570907 4.62987C1.13856 3.25943 2.09986 2.08809 3.33323 1.26398ZM7.5 0.939162C6.20239 0.939162 4.93392 1.32395 3.855 2.04486C2.77607 2.76578 1.93515 3.79044 1.43858 4.98927C0.942005 6.18811 0.812079 7.50728 1.06523 8.77995C1.31838 10.0526 1.94324 11.2217 2.86079 12.1392C3.77834 13.0568 4.94737 13.6816 6.22005 13.9348C7.49272 14.1879 8.81189 14.058 10.0107 13.5614C11.2096 13.0648 12.2342 12.2239 12.9551 11.145C13.6761 10.0661 14.0608 8.79761 14.0608 7.5C14.0608 5.75996 13.3696 4.09118 12.1392 2.86079C10.9088 1.63039 9.24004 0.939162 7.5 0.939162Z" fill="#3E474F"/>
</svg>
