<svg width="177" height="48" viewBox="0 0 177 48" fill="none" xmlns="http://www.w3.org/2000/svg">
<path d="M56.3516 38.332C53.6302 38.332 51.4948 37.3359 49.9453 35.3438C48.3958 33.3385 47.6211 30.5846 47.6211 27.082C47.6211 23.6185 48.3958 20.8971 49.9453 18.918C51.5078 16.9258 53.6432 15.9297 56.3516 15.9297C57.8099 15.9297 59.0924 16.2682 60.1992 16.9453C61.319 17.6224 62.1458 18.5599 62.6797 19.7578H63.0508V8.11719H69.9648V38H63.2266V34.6016H62.8555C62.3216 35.7734 61.4818 36.6914 60.3359 37.3555C59.1901 38.0065 57.862 38.332 56.3516 38.332ZM61.957 22.9023C61.2148 21.8737 60.1927 21.3594 58.8906 21.3594C57.5885 21.3594 56.5664 21.8737 55.8242 22.9023C55.082 23.918 54.7109 25.3242 54.7109 27.1211C54.7109 28.931 55.0755 30.3503 55.8047 31.3789C56.5469 32.3945 57.5755 32.9023 58.8906 32.9023C60.2057 32.9023 61.2344 32.3945 61.9766 31.3789C62.7188 30.3503 63.0898 28.9375 63.0898 27.1406C63.0898 25.3438 62.7122 23.931 61.957 22.9023ZM93.2656 20.7344L88.6367 38H81.8789L74.5156 9.81641H81.957L85.707 28.5078H86.0586L90.5703 9.81641H96.3125L100.98 28.5078H101.332L105.023 9.81641H112.406L105.043 38H98.3242L93.6172 20.7344H93.2656ZM124.574 38H117.406V9.81641H124.574V38ZM150.375 32.082V38H131.234V9.81641H138.402V32.082H150.375ZM174.75 32.082V38H155.609V9.81641H162.777V32.082H174.75Z" fill="#5ED5A8"/>
<circle cx="15.5" cy="22.5" r="15.5" fill="#5ED5A8"/>
</svg>
