<svg xmlns="http://www.w3.org/2000/svg" viewBox="0 0 545.72 192.59"><defs><style>.cls-1{fill:#5cd4a7;}</style></defs><g id="Слой_2" data-name="Слой 2"><g id="Слой_1-2" data-name="Слой 1"><path class="cls-1" d="M69.25,43.81c-1.32-3.85-2.66-7.74-4-11.62-.49-1.4-.48-1.4.64-2.35L98,2.46c.47-.4.92-.8,1.4-1.18a1.69,1.69,0,0,1,2.5,0c2,1.69,4,3.39,6,5.09L135.56,30c1,.82,1,.81.56,2l-3.93,11.38c-.06.17-.1.35-.14.51a2.63,2.63,0,0,0,1.1.64l42.19,18.84c1,.45,1.19.73,1.12,2q-.27,4.49-.56,9-.81,12.89-1.62,25.76-.76,12.25-1.55,24.5c-.44,6.91-.89,13.81-1.25,20.73a3,3,0,0,1-1.8,2.82q-33.68,17.81-67.3,35.7a3.29,3.29,0,0,1-3.51,0q-33.63-17.9-67.3-35.7a2.89,2.89,0,0,1-1.74-2.71c-.47-8.31-1-16.62-1.52-24.93S27.25,104,26.74,95.8s-1-16.34-1.52-24.51c-.11-1.86-.23-3.73-.35-5.6s0-1.85,1.51-2.54L68.44,44.36A1.52,1.52,0,0,0,69.25,43.81Zm1.88,63.28c.17-.07.35-.11.52-.19q13.48-6.36,27-12.7a1.6,1.6,0,0,0,1-1.72c0-11.55,0-23.09,0-34.64,0-.28.16-.64-.2-.87a4.08,4.08,0,0,0-.76,1.16L77.79,94.57q-3.48,6.08-6.93,12.16c-.12.14-.25.3-.08.46S71,107.12,71.13,107.09Zm96.8-38.23c-6.55-3.27-65.21-28.86-66.35-28.94q0,6.26,0,12.49a2.22,2.22,0,0,0,.37,1.17q15.16,26.37,30.31,52.73c.17.3.24.72.74.83ZM99.52,39.71,33.32,68.82l35,38.39a3.9,3.9,0,0,0,.94-1.35q15-26.06,30-52.11A3.24,3.24,0,0,0,99.72,52c0-3.74,0-7.48,0-11.22A1.8,1.8,0,0,0,99.52,39.71Zm2.22,136.86,60.77-35.73-27.65-27.31c-.2.29-.51.75-.83,1.2Q118.22,137.35,102.38,160a4,4,0,0,0-.78,2.45c0,4.25,0,8.51,0,12.76A2.72,2.72,0,0,0,101.74,176.57Zm-63-35.77,60.82,35.76a2.85,2.85,0,0,0,.19-1.5c0-4.26-.07-8.51-.06-12.76A3.8,3.8,0,0,0,98.9,160c-4.17-5.92-8.3-11.86-12.45-17.79l-20-28.67Zm91.66-97.54c1.28-3.67,2.48-7.15,3.69-10.63.44-1.27.44-1.27-.64-2.19L101.61,3.33c-1.14-1-.91-.87-1.9,0L82,18.41Q74.82,24.5,67.68,30.6c-1.06.92-.94.56-.5,1.86,1.1,3.27,2.25,6.53,3.38,9.79.43,1.25.43.94,1.34.58.26-.1.51-.22.77-.34Q85.9,36.58,99.12,30.64a3.34,3.34,0,0,1,3,0c6.89,3.13,13.8,6.19,20.7,9.28ZM37.9,139a2.69,2.69,0,0,0,1.11-.87l26.33-26.44a14,14,0,0,0,1.5-1.85c.7-1,.82-.83-.09-1.83q-16.41-18-32.83-36c-.23-.25-.38-.64-1-.69C34.57,93.93,36.23,116.41,37.9,139Zm125.41-.09c.63-4.26,5.11-66.67,4.85-67.7-.28.29-.54.55-.79.82q-14.94,16.36-29.89,32.74c-1.07,1.17-2.13,2.36-3.22,3.51a.76.76,0,0,0-.09,1.19,25.22,25.22,0,0,0,1.65,2.09l26.43,26.54A2.26,2.26,0,0,0,163.31,138.93Zm-61.44-82-.28.06v.77q0,17.4,0,34.79a1.59,1.59,0,0,0,1.12,1.66c9,4.2,17.9,8.44,26.85,12.65.3.14.59.5,1.07.15Zm-.17,68.78,28.67-16.53L101.7,95.64ZM71.07,109.1c1.7,1.32,27.49,16.08,28.48,16.31V95.65Zm61,5.48-.16-.15c-.21.1-.43.18-.62.29q-14.31,8.4-28.63,16.79a1.75,1.75,0,0,0-1,1.75c0,7.71,0,15.42,0,23.13v1.2l.29.08Zm-62.36,0c-.19.31-.11.43,0,.53q14.86,21.24,29.74,42.47s.07,0,.11,0,0-.16.18,0V156c0-7.52,0-15.05,0-22.57a2.06,2.06,0,0,0-1.22-2.06c-8.51-4.94-17-9.94-25.5-14.92ZM173.42,64.66a.67.67,0,0,0-.46-.46l-71.1-31.71s-.09,0-.14,0l-.12.1c0,1.47,0,3,0,4.46a.89.89,0,0,0,.64,1c.26.1.51.22.77.33l47.05,20.69c6.07,2.67,12.14,5.32,18.2,8a1.66,1.66,0,0,0,1.92-.13C171.2,66.12,172.31,65.42,173.42,64.66ZM27.65,64.51c1.2.82,2.22,1.42,3.11,2.17a2.2,2.2,0,0,0,2.65.23q27-11.91,54-23.75l11.28-5c.39-.18,1-.2,1-.82a49.91,49.91,0,0,0,0-5Zm74,117.68,67.1-35.6c-1.52-1.42-3-2.76-4.38-4.11a.7.7,0,0,0-1-.13c-.31.21-.64.39-1,.58q-29.05,17.07-58.1,34.16c-.88.52-2.08.79-2.52,1.68S101.63,180.87,101.62,182.19Zm-69-35.66c2.48,1.64,66,35.2,67,35.39a15.76,15.76,0,0,1,0-1.82,2,2,0,0,0-1.22-2.21q-29.86-17.49-59.67-35l-.85-.49a.64.64,0,0,0-.88,0Zm142-80.59c-1.29.88-2.29,1.62-3.36,2.25a2.1,2.1,0,0,0-1.11,1.92c-.21,3.46-.47,6.91-.72,10.36Q168.4,94.74,167.33,109t-2.07,28.4c-.08,1.11-.56,2.35-.1,3.31s1.53,1.6,2.34,2.38c.65.62,1.32,1.23,2.2,2C171.37,118.6,173,92.42,174.67,65.94ZM31.56,144.78l.31.11a31.81,31.81,0,0,1,3-2.74,3.42,3.42,0,0,0,1.34-3.51c-.49-5.82-.91-11.65-1.34-17.48Q33.92,108.79,33,96.4c-.63-8.63-1.29-17.25-1.89-25.88A2.63,2.63,0,0,0,29.73,68c-.78-.41-1.46-1-2.21-1.48-.24-.15-.44-.54-.88-.23Q29.1,105.53,31.56,144.78ZM68,111.47c.34.22.64.42,1,.6q15.35,9,30.68,18a1.82,1.82,0,0,0,2.13,0q15.27-9,30.57-18c.34-.2.76-.33,1-.7-1-1.71-.8-1.43-2.14-.67l-.36.21c-9.51,5.48-19,10.94-28.51,16.47a2.84,2.84,0,0,1-3.31,0c-3.92-2.35-7.91-4.6-11.88-6.88l-17.23-9.94c-1-.56-1-.55-1.62.38A5,5,0,0,0,68,111.47Z"/><path class="cls-1" d="M100.65,185a4.57,4.57,0,0,1-2.14-.61c-22.26-11.85-44.91-23.86-67.29-35.7a3.63,3.63,0,0,1-2.14-3.33c-.39-7-.84-14.12-1.28-21l-.24-3.92-.78-12.3Q26.38,102,26,95.84q-.54-8.57-1.06-17.14l-.81-13c-.12-2,.11-2.45,1.95-3.27L68.13,43.68l.16-.07.09,0L64.54,32.44c-.58-1.69-.5-2,.84-3.15L97.89,1.58c.35-.3.7-.6,1.06-.88a2.42,2.42,0,0,1,3.45.05c1.4,1.17,2.78,2.35,4.16,3.53L136.05,29.4c1.19,1,1.28,1.36.78,2.82L132.9,43.59l.28.12a1.69,1.69,0,0,1,.28.12l42.19,18.84c1.31.58,1.65,1.16,1.56,2.7q-.19,3.27-.41,6.54l-.6,9.55q-.58,9.32-1.17,18.63l-.69,10.81-.87,13.69-.2,3.27c-.36,5.72-.74,11.63-1,17.44a3.75,3.75,0,0,1-2.2,3.45C146.82,161,124.17,173,102.73,184.46A4.46,4.46,0,0,1,100.65,185Zm0-183.54a1.28,1.28,0,0,0-.77.37c-.35.28-.69.56-1,.85L98.51,3,66.37,30.41a5,5,0,0,0-.68.64A4.78,4.78,0,0,0,66,32l4.13,12-.23.31a2,2,0,0,1-1,.76l-.11,0L26.68,63.84c-1.14.51-1.14.51-1.06,1.81l.8,13q.54,8.56,1.07,17.14l.78,12.34c.26,4.1.53,8.2.78,12.3l.25,3.92c.44,6.88.89,14,1.28,21a2.14,2.14,0,0,0,1.34,2.08c22.39,11.84,45,23.86,67.3,35.71a2.58,2.58,0,0,0,2.8,0c21.45-11.42,44.09-23.43,67.31-35.7a3,3,0,0,0,.95-.74L168.43,145,167,143.62l-.72-.63a6.11,6.11,0,0,1-1.78-2,4.54,4.54,0,0,1-.1-2.75,7.85,7.85,0,0,0,.13-.94l.69-9.42,1.38-19q.6-8.11,1.22-16.22l.93-12.31v-.19c.25-3.33.51-6.77.71-10.15a2.88,2.88,0,0,1,1.48-2.53c.71-.42,1.39-.89,2.17-1.43l1.15-.79,1.26-.85-5.15,82.1a2.5,2.5,0,0,0,.37-1.34c.31-5.83.68-11.74,1-17.46l.21-3.28c.28-4.56.58-9.12.87-13.69l.69-10.8q.59-9.31,1.16-18.63l.61-9.56c.13-2.18.27-4.35.4-6.53,0-.92,0-.92-.67-1.24L132.85,45.19l-.22-.09a2.49,2.49,0,0,1-1.17-.77l-.23-.29.13-.5.12-.42,3.93-11.39a4.26,4.26,0,0,0,.22-.73s-.28-.22-.52-.42L105.59,5.42q-2.07-1.77-4.15-3.53A1.29,1.29,0,0,0,100.66,1.5Zm73.17,65.93c-.76.53-1.43,1-2.14,1.4a1.4,1.4,0,0,0-.74,1.33c-.21,3.39-.46,6.84-.71,10.17l0,.19q-.45,6.17-.92,12.31-.62,8.11-1.22,16.22-.71,9.48-1.39,19l-.68,9.42c0,.36-.09.72-.15,1.09a3.32,3.32,0,0,0,0,1.85,5.06,5.06,0,0,0,1.38,1.46c.27.23.54.46.79.7l1,1Zm-73,116v-1.26c0-.39,0-.77-.05-1.13a5,5,0,0,1,.28-2.63,4,4,0,0,1,2.06-1.62,5.81,5.81,0,0,0,.75-.37q24.74-14.56,49.5-29.11l8.86-5.2c.23-.13.45-.26.67-.41a1.45,1.45,0,0,1,1.92.22c1,1,2,1.93,3.1,2.91l2,1.91ZM163.77,143l-.75.45-.25.14-8.6,5.05-49.5,29.12c-.28.16-.58.3-.88.44a2.81,2.81,0,0,0-1.35.92,3.87,3.87,0,0,0-.12,1.86h0l65.12-34.55-.51-.47c-1.06-1-2.09-1.95-3.11-2.92ZM100.4,182.83l-.9-.17c-1.73-.34-66.78-35.19-67.26-35.51l-.79-.52,2.08-2c1-.95,2-1.88,3-2.83a1.38,1.38,0,0,1,1.8-.13l.54.32.29.17,9.43,5.54q25.11,14.77,50.24,29.5a2.78,2.78,0,0,1,1.58,2.94,8.67,8.67,0,0,0,0,1.15c0,.19,0,.39,0,.59ZM33.89,146.39c7.32,4.12,57.13,30.44,65,34.34a5.79,5.79,0,0,1,0-.72c.08-.63,0-1-.85-1.47Q72.92,163.81,47.82,149l-9.7-5.71c-.2-.11-.4-.22-.59-.34h0l-2.95,2.78Zm67.51,31.24-.34-.75a2.9,2.9,0,0,1-.24-1.48v-.21c0-1.46,0-2.92,0-4.39,0-2.79,0-5.58,0-8.37a4.73,4.73,0,0,1,.92-2.88q13.83-19.73,27.62-39.48l5.37-7.71,29,28.63ZM135,114.69l-4.36,6.24Q116.82,140.67,103,160.41a3.24,3.24,0,0,0-.65,2c0,2.8,0,5.6,0,8.39,0,1.46,0,2.92,0,4.38v.16l59-34.66ZM99.85,177.62,37.49,141l29-28.58L90.38,146.5q4.56,6.52,9.13,13.05a4.55,4.55,0,0,1,.9,2.75c0,2.78,0,5.55,0,8.33l0,4.43a1.93,1.93,0,0,0,0,.24,3.15,3.15,0,0,1-.27,1.59Zm-59.92-37L99,175.36c0-.1,0-.2,0-.3l0-4.42c0-2.78,0-5.56,0-8.34a3.08,3.08,0,0,0-.62-1.89q-4.59-6.51-9.14-13L66.3,114.68ZM100.4,159l-1-.68a.86.86,0,0,1-.69-.35L69,115.5a1.13,1.13,0,0,1,0-1.36l.39-.61,1.67,1,2.23,1.3,6.26,3.66q9.6,5.64,19.24,11.26a2.77,2.77,0,0,1,1.59,2.7q0,8.61,0,17.22Zm-.43-1.9h0ZM71.52,116.49,98.9,155.58v-4.94q0-8.61,0-17.22a1.34,1.34,0,0,0-.84-1.41q-9.64-5.59-19.25-11.25l-6.26-3.67Zm30.68,42.05-1.34-.39V151q0-8.85,0-17.71a2.51,2.51,0,0,1,1.37-2.4q11-6.39,21.88-12.82l6.75-4a3.33,3.33,0,0,1,.5-.25l.63-.29,1,.91Zm27.62-42.11-4.95,2.9q-10.94,6.42-21.88,12.83a1,1,0,0,0-.63,1.1q0,8.85,0,17.71v4.72ZM32.05,145.75l-1.2-.42,0-.5L25.86,66l.35-.25a1.23,1.23,0,0,1,1.65.16c.37.25.66.47,1,.68a11.37,11.37,0,0,0,1.26.83,3.38,3.38,0,0,1,1.8,3.1q.63,9.11,1.32,18.21l1.37,18.68q.49,6.87,1,13.74l.13,1.74c.38,5.16.78,10.49,1.22,15.74a4.16,4.16,0,0,1-1.65,4.18,16.41,16.41,0,0,0-2,1.79c-.3.3-.59.6-.9.89ZM27.46,67.41l4.77,76.07a18.2,18.2,0,0,1,2.16-1.94c.9-.65,1.16-1.36,1-2.84-.45-5.25-.84-10.59-1.22-15.75l-.13-1.74q-.51-6.87-1-13.75L31.71,88.79Q31,79.69,30.38,70.57c-.07-1.06-.31-1.52-1-1.88a12.4,12.4,0,0,1-1.45-.93ZM37.23,140,32.09,70.57l.87.07a1.84,1.84,0,0,1,1.42.81l.1.12L55.53,94.62l11.77,12.9c.93,1,1.15,1.42.38,2.47l-.23.3a14.51,14.51,0,0,1-1.57,1.95L39.54,138.68l-.15.16a2.81,2.81,0,0,1-1.25.89ZM33.77,73l4.78,64.53,26.26-26.37a13.27,13.27,0,0,0,1.42-1.75l.25-.34a1.47,1.47,0,0,1,.1-.13l-.35-.39L54.42,95.63ZM163.92,139.9l-.83-.25a2.64,2.64,0,0,1-1.23-.84,1.07,1.07,0,0,0-.14-.16l-11.13-11.17-15.3-15.37a11.28,11.28,0,0,1-1.14-1.4c-.18-.25-.37-.5-.56-.74a1.52,1.52,0,0,1,.12-2.19c.82-.85,1.61-1.73,2.41-2.6l.81-.9,29.89-32.74.56-.58,1.18-1.23.32,1.32c.45,1.78-4.75,67.44-4.83,68ZM134.69,109l.06.07c.22.27.41.54.61.81a11.17,11.17,0,0,0,1,1.22l15.3,15.37,11.06,11.1c.88-9,4.16-54.45,4.65-64.34l-30.13,33c-.81.88-1.61,1.76-2.43,2.63A.83.83,0,0,0,134.69,109Zm-34.07,22.23a2.75,2.75,0,0,1-1.4-.44q-11.93-7.05-23.89-14l-6.79-4-.65-.4-.92-.58.41-.79c.08-.16.15-.29.23-.42.87-1.26,1.31-1.37,2.62-.61l17.23,9.94,3.31,1.9c2.82,1.61,5.74,3.29,8.58,5a2.12,2.12,0,0,0,2.55,0c7.31-4.26,14.76-8.56,22-12.71l6.91-4,.47-.29a1.62,1.62,0,0,1,1.28-.37c.53.13.78.56,1.33,1.49l.29.49-.22.38a2.28,2.28,0,0,1-1,.85l-.22.12-9.89,5.8q-10.35,6.06-20.68,12.14A2.86,2.86,0,0,1,100.62,131.18ZM69,111.22l.34.21,6.78,4q12,7,23.91,14a1.07,1.07,0,0,0,1.36,0q10.34-6.09,20.68-12.14l9.89-5.81.3-.16.1,0-.16-.25-.11.08-.54.32-.35.2-6.54,3.76c-7.21,4.15-14.66,8.44-22,12.71a3.58,3.58,0,0,1-4.08,0c-2.82-1.7-5.73-3.37-8.55-5l-3.31-1.9-17.23-9.94-.37-.21A1.91,1.91,0,0,0,69,111.22ZM101,127V94.45l31,14.66Zm1.5-30.19v27.59l26.31-15.17Zm-2.15,29.54-.92-.22c-1.46-.34-27.58-15.52-28.77-16.44l-1-.75L100.3,94.47ZM72.6,109.21c4.63,2.87,21.8,12.71,26.2,15V96.83Zm-4.32-1L32.06,68.55,99.84,38.76l.33.58a2.23,2.23,0,0,1,.3,1.33v3.95q0,3.71,0,7.41a4,4,0,0,1-.56,2.09Q90.73,70.08,81.56,86L70,106.23l-.15.28a3.55,3.55,0,0,1-1,1.29ZM34.58,69.08l33.76,37,.13-.25a3.47,3.47,0,0,1,.18-.33L80.26,85.28,98.61,53.37A2.41,2.41,0,0,0,99,52q0-3.7,0-7.42V40.78ZM133.25,108l-.42-.1a1.62,1.62,0,0,1-1.16-1,.61.61,0,0,0-.07-.14L101.29,54a3,3,0,0,1-.47-1.54c0-3.22,0-6.43,0-9.65V39.12l.8.05c1.57.12,62.2,26.81,66.63,29l.89.44ZM102.33,41v1.78c0,3.22,0,6.43,0,9.65a1.46,1.46,0,0,0,.27.79l30.31,52.74.06.12,33.73-37C157.61,64.79,109.7,43.87,102.33,41Zm-31.53,67a.75.75,0,0,1-.52-.2,1,1,0,0,1,0-1.43l2.21-3.88,4.7-8.23L95.26,62.66l2.82-4.9.15-.28A3.37,3.37,0,0,1,99,56.41l.42-.37.48.3a1.32,1.32,0,0,1,.56,1.39s0,.08,0,.11V70.07q0,11.21,0,22.41a2.34,2.34,0,0,1-1.47,2.4q-10,4.68-20,9.41l-7,3.29-.43.16-.19.06A1.34,1.34,0,0,1,70.8,107.94ZM98.94,59.28l-2.38,4.13L78.44,94.94q-2.35,4.11-4.7,8.24l-1.48,2.6,6-2.85q10-4.71,20-9.41c.49-.23.6-.42.6-1q0-11.2,0-22.41Zm31.32,48.63a1.68,1.68,0,0,1-.9-.3l-.11-.07-10.07-4.75-16.78-7.9a2.34,2.34,0,0,1-1.55-2.35q0-13.91,0-27.82V56.37l1.41-.29,29.38,51.14-.54.4A1.44,1.44,0,0,1,130.26,107.91ZM102.34,59.24v5.48q0,13.91,0,27.83c0,.54.12.72.68,1l16.79,7.91,9.27,4.36Zm66.84,8.81a2.94,2.94,0,0,1-1.23-.31q-6.16-2.73-12.34-5.43L102.49,39l-.53-.22a1.64,1.64,0,0,1-1.12-1.66c0-1.07,0-2.14,0-3.2V32.25l.29-.23a1.3,1.3,0,0,1,.26-.17.87.87,0,0,1,.77-.05l71.09,31.72a1.36,1.36,0,0,1,.87.9l.18.54-.46.32-1,.68c-.78.52-1.51,1-2.21,1.55A2.32,2.32,0,0,1,169.18,68.05ZM102.36,37.26a.42.42,0,0,0,.13.07l.61.25.2.09,52.91,23.26,12.35,5.44c.58.26.81.21,1.15-.05.74-.57,1.53-1.1,2.29-1.61l.14-.09L157.5,58.13l-55.15-24.6v.33c0,1.07,0,2.16,0,3.24a.41.41,0,0,0,0,.16Zm-.81-4.09h0ZM32.14,68a2.82,2.82,0,0,1-1.87-.74,22.07,22.07,0,0,0-1.93-1.38c-.36-.23-.73-.48-1.12-.75l-1.1-.75,74.19-33.15.08,1.06a38.56,38.56,0,0,1,0,4c0,.37,0,.74,0,1.11a1.51,1.51,0,0,1-1.25,1.41l-.2.07q-4.49,2-9,4l-11,4.86Q56.31,57.64,33.72,67.6A4,4,0,0,1,32.14,68Zm-2.95-3.35a21.4,21.4,0,0,1,2,1.46c.57.49,1,.51,1.87.13q22.59-10,45.21-19.91l11-4.86c3-1.32,6-2.63,9-4a3,3,0,0,1,.36-.13l.2-.07,0-1.06c0-.9,0-1.82,0-2.78ZM130.81,44.28l-13.25-5.91q-7.86-3.51-15.72-7a2.54,2.54,0,0,0-2.41,0c-6.74,3.05-13.5,6.06-20.25,9.08l-6.39,2.85c-.2.09-.41.19-.62.27l-.36.16a1.29,1.29,0,0,1-1.1.13c-.48-.2-.65-.7-.86-1.32l-.93-2.67c-.82-2.37-1.65-4.75-2.45-7.13-.07-.19-.12-.35-.17-.47-.34-.92-.24-1.25.54-1.9l.36-.3q5.56-4.77,11.16-9.53L99.22,2.74l.33-.29c1-.88,1.43-.65,2.37.16l.18.15,31.81,27.11c1.3,1.11,1.4,1.45.86,3ZM67.66,31.59l0,.12q.08.2.18.51,1.2,3.57,2.45,7.12L71.26,42c0,.09.06.17.09.24l.27-.12.55-.23L78.57,39c6.75-3,13.5-6,20.24-9.08a4.08,4.08,0,0,1,3.65,0q7.85,3.56,15.71,7.05l11.76,5.24,3.42-9.86a4.76,4.76,0,0,0,.24-.79c0-.06-.35-.32-.65-.58L101,3.75l-.31-.26-.09.08-.36.31L79.34,21.64,68.17,31.17c-.14.13-.27.23-.38.32Z"/><path class="cls-1" d="M44.74,160.88a3.17,3.17,0,0,1,1.47.61l33.17,18.09,6,3.28a5.44,5.44,0,0,1,.83.51.85.85,0,0,1,0,1.43,2.46,2.46,0,0,1-1.12.55l-23.5,6.36c-1.14.31-1.33.19-2-1.09L44.71,164a16.36,16.36,0,0,1-1-1.85C43.42,161.34,43.82,160.84,44.74,160.88ZM83.33,184l.06-.27L47,163.89a.69.69,0,0,0,.11.78q6.82,12.22,13.62,24.46a1.14,1.14,0,0,0,1.57.62c4.53-1.26,9.08-2.49,13.63-3.72Z"/><path class="cls-1" d="M60.84,192.59c-.84,0-1.28-.5-1.9-1.61q-7.45-13.32-14.88-26.65l-.24-.42a12.06,12.06,0,0,1-.78-1.52,1.61,1.61,0,0,1,.09-1.59,1.73,1.73,0,0,1,1.62-.67h0a2.93,2.93,0,0,1,1.53.54l.28.16,39.36,21.46a5.42,5.42,0,0,1,.79.5,1.66,1.66,0,0,1,.67,1.24,1.74,1.74,0,0,1-.61,1.32,3.37,3.37,0,0,1-1.44.72l-5.55,1.5q-9,2.44-18,4.86A3.73,3.73,0,0,1,60.84,192.59ZM44.36,161.67s0,.07.07.16a12.11,12.11,0,0,0,.69,1.33l.25.44q7.43,13.32,14.88,26.65a3.8,3.8,0,0,0,.56.85,1.77,1.77,0,0,0,.64-.12l18-4.85L85,184.62a1.81,1.81,0,0,0,.8-.37.47.47,0,0,0,.14-.18.82.82,0,0,0-.13-.12,3,3,0,0,0-.54-.33l-11.17-6.09-28.2-15.38-.33-.19a1.89,1.89,0,0,0-.76-.33h0A.78.78,0,0,0,44.36,161.67Zm17.35,28.92a1.81,1.81,0,0,1-1.64-1.1Q55,180.25,49.81,171.05l-3.36-6a1.37,1.37,0,0,1-.14-1.45l.34-.73,37.6,20.51-.3,1.27-2.22.6-5.62,1.52-2.63.72c-3.67,1-7.33,2-11,3A2.89,2.89,0,0,1,61.71,190.59ZM48.45,165.54l2.67,4.78q5.15,9.21,10.26,18.44c.21.39.24.4.7.27q5.51-1.53,11-3l2.64-.72,5.62-1.52.37-.1Z"/><path class="cls-1" d="M156.54,160.86c1,0,1.3.52,1,1.24a7.84,7.84,0,0,1-.51,1l-15.29,27.38c-.87,1.55-.87,1.55-2.65,1.07l-22.69-6.14a3.27,3.27,0,0,1-1.28-.52.9.9,0,0,1,0-1.6,7.2,7.2,0,0,1,.85-.49q19.54-10.65,39.07-21.32A3.34,3.34,0,0,1,156.54,160.86Zm-2.1,3.3-.2-.24-36.57,20c.49.18.7.27.92.33,4.55,1.24,9.1,2.46,13.66,3.69,2.29.63,4.59,1.25,6.88,1.89.61.17,1.1.17,1.34-.54a2.68,2.68,0,0,1,.28-.49q6.56-11.75,13.1-23.49C154.06,164.89,154.25,164.52,154.44,164.16Z"/><path class="cls-1" d="M140.5,192.57a6.71,6.71,0,0,1-1.57-.29l-9.44-2.56-13.25-3.59-.15,0a3.76,3.76,0,0,1-1.41-.62,1.64,1.64,0,0,1,0-2.79,5,5,0,0,1,.71-.43l.22-.12L155,160.65a2.87,2.87,0,0,1,1.54-.54,1.87,1.87,0,0,1,1.61.74,1.63,1.63,0,0,1,.1,1.51,7.17,7.17,0,0,1-.46.92l-.1.18-15.3,27.38C141.72,192.1,141.33,192.57,140.5,192.57Zm16-31a2.61,2.61,0,0,0-.71.34l-.34.19-39.32,21.45a3.25,3.25,0,0,0-.51.3c-.17.13-.19.21-.19.21a.88.88,0,0,0,.19.21,2.75,2.75,0,0,0,.86.34l.16,0,13.26,3.59,9.43,2.55a4.87,4.87,0,0,0,1.19.25,5.85,5.85,0,0,0,.61-1l15.4-27.57a6.51,6.51,0,0,0,.35-.7.73.73,0,0,0,0-.18,3.8,3.8,0,0,0-.4,0Zm-16.81,29a3.16,3.16,0,0,1-.75-.11c-2.29-.65-4.58-1.27-6.88-1.89l-13.65-3.69c-.17-.05-.32-.1-.55-.19l-2-.73,38.54-21,.95,1.07-.43.8c-.13.26-.27.52-.41.77l-13.11,23.5-.12.19c0,.06-.08.14-.09.17A1.52,1.52,0,0,1,139.68,190.62Zm-20.11-6.93,12.87,3.48q3.45.93,6.9,1.89a.87.87,0,0,0,.38.06l.05-.12a1.73,1.73,0,0,1,.25-.49l.07-.13,12.75-22.84Z"/><path class="cls-1" d="M179.68,83.56q.54-8.44,1.06-16.91c0-.51,0-1.09.6-1.3a1.43,1.43,0,0,1,1.61.53q8,8.39,15.94,16.75c.93,1,.89,1.45-.1,2.33l-18.22,16-.32.28a.94.94,0,0,1-1.15.22,1.06,1.06,0,0,1-.45-1.1c.09-1.35.17-2.7.25-4q.4-6.36.8-12.72Zm17.82.22c-3.79-4.42-14.07-15-15.12-15.61-.62,10.08-1.23,20.12-1.87,30.51Z"/><path class="cls-1" d="M179.52,102.31a1.51,1.51,0,0,1-.79-.22,1.76,1.76,0,0,1-.83-1.8c.06-.84.11-1.68.16-2.53l.84-13.45h0L180,66.45a1.76,1.76,0,0,1,1.09-1.81,2.18,2.18,0,0,1,2.41.72q3.66,3.87,7.33,7.72,4.3,4.52,8.6,9a2,2,0,0,1-.14,3.4L185.81,97.34l-5.07,4.44A1.83,1.83,0,0,1,179.52,102.31Zm1-19.38h0l-.93,14.91c-.05.85-.1,1.7-.16,2.54,0,.34,0,.38.08.4s.11,0,.28-.14l5.06-4.44L198.3,84.39c.5-.44.51-.58.51-.59s0-.15-.47-.65q-4.29-4.53-8.59-9-3.67-3.85-7.34-7.72c-.45-.47-.66-.39-.82-.34a1.06,1.06,0,0,0-.09.47v.17Zm-.83,17.5,2-33.48,1,.56c1.29.7,12,11.83,15.34,15.78l.49.56ZM183,69.71l-1.66,27.22L196.45,83.7C192.88,79.64,185.76,72.28,183,69.71Z"/><path class="cls-1" d="M20.59,83.59q.5,8.11,1,16.22a7.89,7.89,0,0,1,0,.84.86.86,0,0,1-1.39.72,4.7,4.7,0,0,1-.65-.53L1.7,85.13C.46,84,.44,83.64,1.61,82.41q7.72-8.13,15.46-16.24c.12-.14.26-.27.38-.41a1.3,1.3,0,0,1,1.52-.4c.53.19.53.7.57,1.17.14,2.19.3,4.38.43,6.57C20.18,76.6,20.38,80.1,20.59,83.59Zm-1.1,14.84.26-.13c-.61-10-1.23-20.09-1.86-30.47C12.71,73.26,7.76,78.45,2.74,83.73Z"/><path class="cls-1" d="M20.83,102.29a1.88,1.88,0,0,1-.95-.27,4.17,4.17,0,0,1-.63-.49l-2.26-2L1.21,85.7A2.85,2.85,0,0,1,0,83.86a2.88,2.88,0,0,1,1.07-2L13.19,69.15l3.47-3.64.23-.24a2,2,0,0,1,2.34-.62,1.75,1.75,0,0,1,1.05,1.76l.13,2c.11,1.56.21,3.11.31,4.67q.23,3.73.44,7.48l1.19,19.23a1.94,1.94,0,0,0,0,.24,4,4,0,0,1,0,.71,1.74,1.74,0,0,1-.88,1.41A1.52,1.52,0,0,1,20.83,102.29ZM18.47,66a.58.58,0,0,0-.45.24c-.09.11-.19.21-.29.31l-.12.13-3.33,3.49L2.15,82.93c-.63.66-.65.84-.65.87s0,.19.7.77L18,98.41l2.28,2a2.71,2.71,0,0,0,.37.3.4.4,0,0,0,.21.07.44.44,0,0,0,.06-.21,1.91,1.91,0,0,0,0-.4c0-.11,0-.22,0-.32L19.66,80.63q-.21-3.75-.44-7.48c-.09-1.55-.2-3.1-.3-4.65l-.13-1.92a2.32,2.32,0,0,0-.07-.53A.77.77,0,0,0,18.47,66Zm.89,33.31L1.65,83.78,18.53,66.07l2,32.69ZM3.82,83.68l15.1,13.25L17.24,69.59Z"/><path class="cls-1" d="M71.13,107.09c-.12,0-.3.14-.35.1s0-.32.08-.46Z"/><path class="cls-1" d="M70.8,107.94a.75.75,0,0,1-.52-.2,1,1,0,0,1,0-1.49l.6-.7,1.51,1.94-1,.31A1.34,1.34,0,0,1,70.8,107.94Zm.28-1,.35.29a.59.59,0,0,0-.15-.6.75.75,0,0,0-.34-.16Z"/><path class="cls-1" d="M219.33,192.17,203,175.79v-58.2L219.33,101h35.38l14.81,16.38V63.74h5.75V192.17h-5.75V176l-14.81,16.2Zm33.28-5.23L269.52,169V124.21l-16.91-17.95H221.42l-12.72,12.9v55.06l12.72,12.72Z"/><path class="cls-1" d="M329.81,192.17l-35-128.43h5.76l33.1,122.68h3.49L366.41,63.74h5.92l29.45,122.68h3.49L438.2,63.74h5.93l-35,128.43H397.77L369.37,74.55,341.14,192.17Z"/><path class="cls-1" d="M463.64,91.1V72.63h5.75V91.1Zm0,101.07V101h5.75v91.14Z"/><path class="cls-1" d="M501.81,192.17V63.74h5.75V192.17Z"/><path class="cls-1" d="M540,192.17V63.74h5.75V192.17Z"/></g></g></svg>