<svg width="29" height="15" viewBox="0 0 29 15" fill="none" xmlns="http://www.w3.org/2000/svg">
<path d="M6.68701 14.7507C5.852 14.8273 5.07051 14.7616 4.31044 14.5863C1.68766 13.9619 0.456553 12.1981 0.820532 9.42639C1.02393 7.8817 1.34509 6.34795 1.81612 4.85804C2.81171 1.76865 4.90993 0.180129 8.1108 0.0377104C9.38473 -0.017066 10.6265 0.147263 11.772 0.749804C13.335 1.57145 14.2021 3.25856 13.9773 5.04428C13.7846 6.55611 13.4848 8.04602 13.0887 9.51403C12.1467 12.954 10.102 14.6082 6.68701 14.7507ZM4.52455 9.56881C4.50314 10.982 4.97417 11.6503 5.91623 11.7818C7.45778 12.0009 8.68889 11.2778 9.23485 9.78791C9.66306 8.62665 9.83435 7.39966 10.0806 6.19458C10.1983 5.603 10.284 5.01141 10.209 4.40887C10.102 3.62009 9.68447 3.17092 8.9244 3.0285C7.4899 2.76558 6.16245 3.43385 5.62719 4.80326C5.00628 6.40273 4.74936 8.11176 4.52455 9.56881Z" fill="#FE0000"/>
<path d="M21.0432 0.224401C22.2529 0.268222 23.666 0.114848 25.0577 0.421596C26.8026 0.815987 27.9481 1.91152 28.1301 3.39048C28.462 6.17312 26.5778 8.81334 23.8801 9.38302C22.467 9.67881 21.0432 9.58021 19.6301 9.58021C19.2769 9.58021 19.1377 9.68977 19.0735 10.0294C18.8379 11.2892 18.5489 12.5491 18.3241 13.8199C18.2277 14.3677 17.9601 14.5977 17.4142 14.5868C16.6862 14.5649 15.9582 14.5868 15.2303 14.5758C14.5451 14.5758 14.4488 14.4663 14.5987 13.7651C15.2089 10.7963 15.8298 7.83832 16.44 4.86944C16.7076 3.57672 16.9966 2.28399 17.2429 0.980316C17.3499 0.443507 17.6068 0.191535 18.1528 0.202491C19.0413 0.235356 19.9513 0.224401 21.0432 0.224401ZM21.0968 6.7428C21.45 6.7428 21.8033 6.76471 22.1566 6.7428C23.4733 6.65515 24.3619 5.69109 24.3726 4.3655C24.3726 3.63149 24.0728 3.24806 23.3663 3.13851C22.4884 2.98513 21.5999 3.10564 20.7114 3.06182C20.4544 3.05086 20.433 3.21519 20.4009 3.40143C20.2725 4.05875 20.1333 4.71607 19.9941 5.37338C19.9085 5.8116 19.6087 6.42509 19.78 6.66611C20.0369 6.97286 20.6471 6.70993 21.0968 6.7428Z" fill="#FE0000"/>
</svg>
