<svg width="17" height="17" viewBox="0 0 17 17" fill="none" xmlns="http://www.w3.org/2000/svg">
<circle cx="8.5" cy="8.5" r="8" stroke="#3E474F"/>
<path d="M5.89258 6.75391C5.92773 6.08594 6.16406 5.54102 6.60156 5.11914C7.04297 4.69336 7.6582 4.48047 8.44727 4.48047C9.17773 4.48047 9.77344 4.68164 10.2344 5.08398C10.6992 5.48633 10.9316 5.99219 10.9316 6.60156C10.9316 7.45703 10.5234 8.13086 9.70703 8.62305C9.33984 8.8418 9.08789 9.04883 8.95117 9.24414C8.81836 9.43945 8.75195 9.69336 8.75195 10.0059V10.3867H7.72656V9.84766C7.72266 9.46484 7.81445 9.13281 8.00195 8.85156C8.19336 8.57031 8.49219 8.30859 8.89844 8.06641C9.24219 7.85547 9.48438 7.64453 9.625 7.43359C9.76953 7.22266 9.8418 6.96289 9.8418 6.6543C9.8418 6.28711 9.70898 5.98633 9.44336 5.75195C9.18164 5.51367 8.83594 5.39453 8.40625 5.39453C7.96484 5.39453 7.60938 5.51562 7.33984 5.75781C7.07422 6 6.92578 6.33203 6.89453 6.75391H5.89258ZM8.89844 12.877C8.75 13.0293 8.55664 13.1055 8.31836 13.1055C8.08008 13.1055 7.88477 13.0293 7.73242 12.877C7.58008 12.7246 7.50391 12.5293 7.50391 12.291C7.50391 12.0527 7.58008 11.8574 7.73242 11.7051C7.88477 11.5488 8.08008 11.4707 8.31836 11.4707C8.55664 11.4707 8.75 11.5469 8.89844 11.6992C9.05078 11.8516 9.12695 12.0488 9.12695 12.291C9.12695 12.5293 9.05078 12.7246 8.89844 12.877Z" fill="#3E474F"/>
</svg>
