<svg width="12" height="14" viewBox="0 0 12 14" fill="none" xmlns="http://www.w3.org/2000/svg">
<g clip-path="url(#clip0_548_10379)">
<path d="M1.14654 13.9999C1.0734 13.9779 0.997653 13.9559 0.927126 13.9312C0.362912 13.7391 0.00244141 13.2067 0.00244141 12.559C0.00244141 10.4813 0.00244141 8.4037 0.00244141 6.32607C0.00244141 5.86499 0.00244141 5.40664 0.00244141 4.94556C0.00505351 4.10298 0.579716 3.50192 1.38424 3.49917C1.91711 3.49643 2.44998 3.49643 2.98546 3.49917C3.16831 3.49917 3.29892 3.61445 3.33026 3.78735C3.35899 3.94379 3.26757 4.11945 3.1239 4.17159C3.05599 4.19629 2.98024 4.19904 2.9071 4.19904C2.38207 4.20178 1.85703 4.19355 1.332 4.20178C0.861823 4.21002 0.548371 4.68757 0.712933 5.13768C0.812193 5.42311 1.01855 5.57132 1.30327 5.59876C1.34506 5.60425 1.38947 5.60151 1.43387 5.60151C4.23666 5.60151 7.03683 5.60151 9.83962 5.60151C9.88664 5.60151 9.93366 5.60151 9.98851 5.60151C9.98851 5.13219 9.98851 4.67659 9.98851 4.20178C9.76648 4.20178 9.54706 4.20178 9.32765 4.20178C9.20227 4.20178 9.07427 4.20727 8.95151 4.1908C8.77127 4.16885 8.65895 4.01515 8.6694 3.82852C8.67723 3.65287 8.80784 3.50741 8.98024 3.50466C9.43474 3.49917 9.89186 3.49917 10.3464 3.50466C10.5371 3.50741 10.6598 3.65836 10.665 3.87792C10.6703 4.092 10.6677 4.30608 10.6677 4.52015C10.6677 4.8742 10.6677 5.22825 10.6677 5.60151C10.7251 5.60151 10.7721 5.60151 10.8192 5.60151C11.096 5.60151 11.3755 5.59876 11.6524 5.60151C11.8614 5.60425 11.9894 5.73874 12.0024 5.9583C12.0051 5.99124 12.0024 6.02143 12.0024 6.05436C12.0024 8.55191 12.0024 11.0467 12.0051 13.5443C12.0051 13.7583 11.9424 13.9148 11.7465 13.9971C8.20967 13.9999 4.67811 13.9999 1.14654 13.9999ZM11.3207 11.2004C11.2632 11.2004 11.2136 11.2004 11.1613 11.2004C10.4717 11.2004 9.78215 11.2004 9.09256 11.2004C8.78172 11.2004 8.66679 11.0796 8.66679 10.7585C8.66679 10.1218 8.66679 9.48232 8.66679 8.84558C8.66679 8.51623 8.78172 8.39821 9.1004 8.39821C9.79521 8.39821 10.4874 8.39821 11.1822 8.39821C11.2293 8.39821 11.2737 8.39821 11.3181 8.39821C11.3181 7.68737 11.3181 6.99849 11.3181 6.29863C11.2528 6.29863 11.1953 6.29863 11.1404 6.29863C7.90405 6.29863 4.66766 6.29863 1.43126 6.29863C1.18311 6.29863 0.948023 6.26295 0.725994 6.13944C0.712933 6.13121 0.694649 6.13121 0.668528 6.12572C0.668528 6.18061 0.668528 6.22452 0.668528 6.26844C0.668528 8.35156 0.668528 10.4347 0.668528 12.5151C0.668528 13.0173 0.929738 13.2945 1.40775 13.2945C4.66504 13.2945 7.92234 13.2945 11.1822 13.2945C11.2266 13.2945 11.2737 13.2918 11.3207 13.289C11.3207 12.5892 11.3207 11.903 11.3207 11.2004ZM9.3381 9.10631C9.3381 9.57837 9.3381 10.034 9.3381 10.4896C10.0042 10.4896 10.6624 10.4896 11.3181 10.4896C11.3181 10.023 11.3181 9.5674 11.3181 9.10631C10.6546 9.10631 10.0016 9.10631 9.3381 9.10631Z" fill="#5ED5A8"/>
<path d="M5.66556 3.82029C5.66556 3.7407 5.66556 3.6913 5.66556 3.64189C5.66556 2.58524 5.66556 1.52858 5.66556 0.471927C5.66556 0.417036 5.66556 0.362145 5.67078 0.307253C5.68907 0.131602 5.83012 -0.000137329 5.99729 -0.000137329C6.16969 -0.000137329 6.31075 0.137091 6.32642 0.320976C6.33164 0.370378 6.32903 0.41978 6.32903 0.471927C6.32903 1.52858 6.32903 2.58524 6.32903 3.64189C6.32903 3.6913 6.32903 3.73795 6.32903 3.8148C6.3865 3.77089 6.42307 3.74619 6.45702 3.716C6.78615 3.44154 7.11266 3.16434 7.44179 2.88714C7.56194 2.78559 7.69516 2.76912 7.82838 2.84872C7.95376 2.92282 8.01645 3.04907 7.9851 3.19453C7.96682 3.27961 7.91719 3.37842 7.85189 3.43331C7.31118 3.89714 6.76525 4.35274 6.21932 4.80833C6.06782 4.93458 5.92154 4.93184 5.76743 4.80559C5.22411 4.35274 4.68341 3.89714 4.1427 3.4388C3.97814 3.29882 3.95202 3.08749 4.06956 2.93105C4.18972 2.77187 4.39607 2.7554 4.56586 2.89812C4.87931 3.15885 5.18754 3.42233 5.50099 3.68306C5.54801 3.72423 5.59503 3.76265 5.66556 3.82029Z" fill="#5ED5A8"/>
</g>
<defs>
<clipPath id="clip0_548_10379">
<rect width="12" height="14" fill="white"/>
</clipPath>
</defs>
</svg>
