<svg width="32" height="32" viewBox="0 0 32 32" fill="none" xmlns="http://www.w3.org/2000/svg">
<path d="M10.9999 16.8625L22.2374 26.75C22.3673 26.865 22.5248 26.9442 22.6945 26.9799C22.8643 27.0155 23.0404 27.0065 23.2055 26.9535C23.3707 26.9006 23.5193 26.8056 23.6366 26.6778C23.754 26.5501 23.8361 26.3941 23.8749 26.225L28.5749 5.70001C28.6143 5.52324 28.605 5.3391 28.5479 5.16723C28.4908 4.99535 28.3881 4.84221 28.2508 4.72414C28.1135 4.60607 27.9467 4.5275 27.7682 4.49683C27.5897 4.46617 27.4062 4.48454 27.2374 4.55001L4.16239 13.6125C3.23739 13.975 3.36239 15.325 4.33739 15.525L10.9999 16.8625Z" stroke="#C1C7CD" stroke-width="2" stroke-linecap="round" stroke-linejoin="round"/>
<path d="M11 16.8625L28.0125 4.57501" stroke="#C1C7CD" stroke-width="2" stroke-linecap="round" stroke-linejoin="round"/>
<path d="M16.6125 21.8L12.7125 25.7C12.5734 25.8413 12.3954 25.938 12.2011 25.9779C12.0069 26.0178 11.8052 25.999 11.6216 25.924C11.4381 25.8489 11.281 25.721 11.1703 25.5565C11.0596 25.392 11.0003 25.1983 11 25V16.8625" stroke="#C1C7CD" stroke-width="2" stroke-linecap="round" stroke-linejoin="round"/>
</svg>
