<svg width="26" height="25" viewBox="0 0 26 25" fill="none" xmlns="http://www.w3.org/2000/svg">
<path d="M13.125 8.59374C13.125 6.4453 14.9317 4.65819 17.0801 4.68749C17.8325 4.69618 18.5664 4.92198 19.1935 5.33776C19.8206 5.75354 20.3143 6.34159 20.6153 7.03124H24.0625L20.9082 10.1855C20.7047 13.3541 19.3021 16.3261 16.9856 18.4975C14.6691 20.6689 11.6126 21.8766 8.43754 21.875C5.31254 21.875 4.53129 20.7031 4.53129 20.7031C4.53129 20.7031 7.65629 19.5312 9.21879 17.1875C9.21879 17.1875 2.96879 14.0625 4.53129 5.46874C4.53129 5.46874 8.43754 9.37499 13.125 10.1562V8.59374Z" stroke="#C1C7CD" stroke-linecap="round" stroke-linejoin="round"/>
</svg>
