<svg width="32" height="32" viewBox="0 0 32 32" fill="none" xmlns="http://www.w3.org/2000/svg">
<path d="M15.9999 11C15.9999 8.25 18.3124 5.9625 21.0624 6C22.0255 6.01112 22.9649 6.30014 23.7676 6.83234C24.5703 7.36454 25.2023 8.11725 25.5874 9H29.9999L25.9624 13.0375C25.7019 17.0932 23.9065 20.8975 20.9414 23.6768C17.9763 26.4562 14.064 28.002 9.99994 28C5.99994 28 4.99994 26.5 4.99994 26.5C4.99994 26.5 8.99994 25 10.9999 22C10.9999 22 2.99994 18 4.99994 7C4.99994 7 9.99994 12 15.9999 13V11Z" stroke="#C1C7CD" stroke-width="2" stroke-linecap="round" stroke-linejoin="round"/>
</svg>
